<svg width="375" height="321" viewBox="0 0 375 321" fill="none" xmlns="http://www.w3.org/2000/svg">
<g clip-path="url(#clip0_578_2350)">
<path d="M217.038 277.51C259.945 268.099 295.948 291.567 321.038 255.51C341.216 226.51 339.288 141.01 335.538 103.51C332.94 77.5347 291.342 70.5726 269.038 57.0098C239.172 38.849 228.986 25.1207 194.038 24.5098C150.485 23.7485 126.53 42.9477 94.5376 72.5098C72.8898 92.5133 54.1491 77.821 45.5376 106.01C34.1848 143.172 34.1232 168.367 45.5376 205.51C55.9594 239.423 67.7916 258.7 94.5376 282.01C135.504 317.713 163.959 289.152 217.038 277.51Z" fill="#F6F8FB"/>
<path fill-rule="evenodd" clip-rule="evenodd" d="M103 151.5C102.724 151.5 102.5 151.724 102.5 152V158.5H95.9999C95.7237 158.5 95.4999 158.724 95.4999 159V165C95.4999 165.276 95.7237 165.5 95.9999 165.5H102.5V172C102.5 172.276 102.724 172.5 103 172.5H109C109.276 172.5 109.5 172.276 109.5 172V165.5H116C116.276 165.5 116.5 165.276 116.5 165V159C116.5 158.724 116.276 158.5 116 158.5H109.5V152C109.5 151.724 109.276 151.5 109 151.5H103ZM108.5 158.5V152.5H103.5V158.5V159V159.5H103H102.5H96.4999V164.5H102.5H103H103.5V165V165.5V171.5H108.5V165.5V165V164.5H109H109.5H115.5V159.5H109.5H109H108.5V159V158.5Z" fill="#4C6780"/>
<g clip-path="url(#clip1_578_2350)">
<path d="M176.318 51.2706L190.729 44.3181C191.72 43.8402 192.921 44.2597 193.399 45.2504L198.614 56.0583C199.092 57.049 198.672 58.2507 197.681 58.7287L183.271 65.6811C182.28 66.1591 181.078 65.7396 180.6 64.7489L175.386 53.941C174.908 52.9502 175.328 51.7486 176.318 51.2706Z" stroke="#4C6780" stroke-linecap="round" stroke-linejoin="round"/>
<path d="M193.399 45.2508L187.434 55.9007L175.386 53.9414" stroke="#4C6780" stroke-linecap="round" stroke-linejoin="round"/>
</g>
<path d="M303 66C303 66.5304 302.789 67.0391 302.414 67.4142C302.039 67.7893 301.53 68 301 68H289L285 72V56C285 55.4696 285.211 54.9609 285.586 54.5858C285.961 54.2107 286.469 54 287 54H301C301.53 54 302.039 54.2107 302.414 54.5858C302.789 54.9609 303 55.4696 303 56V66Z" stroke="#4C6780" stroke-linecap="round" stroke-linejoin="round"/>
<circle cx="237" cy="34.9996" r="15" transform="rotate(-16.6992 237 34.9996)" fill="#D3E3F1"/>
<path d="M231.828 49.0805C234.77 50.1637 238.076 50.3371 241.31 49.3668C244.544 48.3964 247.208 46.4322 249.069 43.9082C249.069 43.9082 243.609 36.1488 237.862 37.8729C232.115 39.5969 231.828 49.0805 231.828 49.0805Z" fill="white"/>
<circle cx="236.425" cy="33.0838" r="5" transform="rotate(-16.6992 236.425 33.0838)" fill="white"/>
<circle cx="169" cy="118" r="15" transform="rotate(18.9843 169 118)" fill="#D3E3F1"/>
<path d="M156.585 126.421C158.343 129.017 160.927 131.086 164.12 132.184C167.313 133.283 170.623 133.241 173.606 132.276C173.606 132.276 173.698 122.789 168.024 120.837C162.35 118.885 156.585 126.421 156.585 126.421Z" fill="white"/>
<circle cx="169.651" cy="116.109" r="5" transform="rotate(18.9843 169.651 116.109)" fill="white"/>
<circle cx="41.9999" cy="124" r="13" transform="rotate(-17.1755 41.9999 124)" fill="#D3E3F1"/>
<path d="M37.6191 136.241C40.1769 137.159 43.0427 137.285 45.8388 136.421C48.6348 135.557 50.9295 133.835 52.5234 131.634C52.5234 131.634 47.7358 124.949 42.7676 126.485C37.7995 128.02 37.6191 136.241 37.6191 136.241Z" fill="white"/>
<circle cx="41.488" cy="122.344" r="4.33333" transform="rotate(-17.1755 41.488 122.344)" fill="white"/>
<circle cx="332.5" cy="123.999" r="9.5" transform="rotate(-15.5625 332.5 123.999)" fill="#D3E3F1"/>
<path d="M329.048 132.851C330.898 133.574 332.988 133.725 335.049 133.151C337.109 132.578 338.821 131.367 340.03 129.793C340.03 129.793 336.67 124.811 333.01 125.83C329.349 126.85 329.048 132.851 329.048 132.851Z" fill="white"/>
<circle cx="332.16" cy="122.779" r="3.16667" transform="rotate(-15.5625 332.16 122.779)" fill="white"/>
<circle cx="250" cy="194" r="11" transform="rotate(17.6917 250 194)" fill="#D3E3F1"/>
<path d="M241.037 200.379C242.369 202.254 244.298 203.728 246.657 204.48C249.016 205.233 251.442 205.148 253.613 204.391C253.613 204.391 253.523 197.434 249.331 196.097C245.139 194.759 241.037 200.379 241.037 200.379Z" fill="white"/>
<circle cx="250.446" cy="192.603" r="3.66667" transform="rotate(17.6917 250.446 192.603)" fill="white"/>
<circle cx="149" cy="35" r="8" fill="#D3E3F1"/>
<path d="M144.2 41.4002C145.537 42.4045 147.199 42.9996 149 42.9996C150.801 42.9996 152.463 42.4045 153.8 41.4002C153.8 41.4002 152.2 36.5996 149 36.5996C145.8 36.5996 144.2 41.4002 144.2 41.4002Z" fill="white"/>
<circle cx="149" cy="33.9333" r="2.66667" fill="white"/>
<path d="M229.147 140.661C229.147 140.661 214.957 129.118 210.267 118.887C204.287 105.843 207.92 82.2168 207.92 82.2168" stroke="#34B6FF"/>
<ellipse cx="209.501" cy="85.3337" rx="1.05953" ry="2.75479" transform="rotate(49.0716 209.501 85.3337)" fill="#34B6FF"/>
<ellipse cx="209.353" cy="91.6326" rx="1.05953" ry="2.75479" transform="rotate(49.0716 209.353 91.6326)" fill="#34B6FF"/>
<ellipse cx="209.247" cy="97.3336" rx="1.05953" ry="2.75479" transform="rotate(56.34 209.247 97.3336)" fill="#399CD3"/>
<ellipse cx="209.142" cy="103.035" rx="1.05953" ry="2.75479" transform="rotate(49.0716 209.142 103.035)" fill="#34B6FF"/>
<ellipse cx="210.094" cy="108.66" rx="1.27144" ry="3.1786" transform="rotate(49.0716 210.094 108.66)" fill="#123258"/>
<ellipse cx="210.561" cy="115.395" rx="1.27144" ry="3.1786" transform="rotate(26.6565 210.561 115.395)" fill="#399CD3"/>
<ellipse cx="215.253" cy="122.662" rx="1.56541" ry="3.91353" transform="rotate(26.6565 215.253 122.662)" fill="#123258"/>
<ellipse cx="218.5" cy="127.7" rx="1.56541" ry="3.91353" transform="rotate(26.6565 218.5 127.7)" fill="#399CD3"/>
<ellipse cx="222.866" cy="131.796" rx="1.56541" ry="2.74484" transform="rotate(26.6565 222.866 131.796)" fill="#123258"/>
<ellipse cx="204.522" cy="107.007" rx="1.24252" ry="3.23055" transform="rotate(117.825 204.522 107.007)" fill="#399CD3"/>
<ellipse cx="205.822" cy="114.702" rx="1.24252" ry="3.23055" transform="rotate(117.825 205.822 114.702)" fill="#123258"/>
<ellipse cx="209.542" cy="122.719" rx="1.58482" ry="4.12053" transform="rotate(117.825 209.542 122.719)" fill="#399CD3"/>
<ellipse cx="212.955" cy="128.533" rx="1.58482" ry="4.12053" transform="rotate(99.0395 212.955 128.533)" fill="#123258"/>
<ellipse cx="217.567" cy="134.692" rx="1.58482" ry="4.12053" transform="rotate(69.9512 217.567 134.692)" fill="#399CD3"/>
<ellipse cx="204.807" cy="100.623" rx="1.05953" ry="2.75479" transform="rotate(129.298 204.807 100.623)" fill="#34B6FF"/>
<ellipse cx="204.635" cy="94.6024" rx="1.05953" ry="2.75479" transform="rotate(119.68 204.635 94.6024)" fill="#34B6FF"/>
<ellipse cx="205.103" cy="88.0255" rx="1.05953" ry="2.75479" transform="rotate(123.494 205.103 88.0255)" fill="#399CD3"/>
<ellipse cx="208.688" cy="79.8685" rx="1.05953" ry="2.75479" transform="rotate(18.9696 208.688 79.8685)" fill="#34B6FF"/>
<path opacity="0.2" d="M316.879 180.738C316.384 167.937 326.959 169.228 333.697 160.58C340.435 151.932 348.254 183.874 337.382 198.659C326.51 213.444 340.231 202.732 345.035 199.897C349.838 197.061 341.296 224.316 329.543 227.389C317.791 230.462 320.519 241.112 336.689 236.292C352.86 231.473 325.777 253.27 311.427 258.488C297.076 263.706 312.036 265.078 323.417 262.364C334.797 259.649 307.024 279.24 295.048 274.633C283.071 270.027 284.676 282.118 297.011 287.096C309.346 292.075 286.321 292.016 269.676 282.938C253.03 273.86 258.573 290.409 273.101 295.428C287.628 300.447 235.497 313.01 225.764 285.784C225.491 285.02 247.062 273.77 246.832 273.015C246.54 272.052 224.461 281.586 224.237 280.64C218.356 255.846 234.961 236.946 238.535 247.277C242.352 258.312 243.421 259.794 250.139 252.242C256.857 244.691 251.394 223.757 258.5 234.853C265.606 245.948 265.484 252.525 271.167 241.665C276.849 230.804 267.475 203.951 277.755 221.318C288.034 238.686 292.919 231.466 289.812 221.54C286.705 211.615 285.339 190.681 288.734 200.687C294.974 219.077 314.745 217.248 303.938 208.643C293.132 200.037 298.541 164.319 304.497 178.317C310.452 192.316 317.374 193.539 316.879 180.738Z" fill="#208153"/>
<path d="M314.129 172.872C313.633 160.07 324.209 161.362 330.947 152.714C337.685 144.066 345.503 176.008 334.632 190.793C323.76 205.578 337.481 194.866 342.285 192.03C347.088 189.195 338.545 216.45 326.793 219.523C315.041 222.596 317.769 233.245 333.939 228.426C350.109 223.607 323.027 245.403 308.677 250.622C294.326 255.84 309.286 257.212 320.667 254.497C332.047 251.783 304.274 271.373 292.298 266.767C280.321 262.161 281.926 274.251 294.261 279.23C306.596 284.209 283.571 284.15 266.926 275.072C250.28 265.993 255.823 282.543 270.351 287.562C284.878 292.581 232.747 305.144 223.014 277.918C222.741 277.154 244.312 265.904 244.082 265.149C243.79 264.186 221.711 273.72 221.487 272.773C215.606 247.98 232.211 229.08 235.784 239.411C239.602 250.446 240.671 251.928 247.389 244.376C254.107 236.824 248.644 215.891 255.75 226.986C262.855 238.082 262.734 244.659 268.417 233.798C274.099 222.938 264.725 196.085 275.005 213.452C285.284 230.82 290.169 223.6 287.062 213.674C283.955 203.749 282.589 182.815 285.984 192.821C292.224 211.211 311.995 209.382 301.188 200.776C290.382 192.171 295.791 156.453 301.747 170.451C307.702 184.449 314.624 185.673 314.129 172.872Z" fill="#29CB7E"/>
<path opacity="0.1" d="M270.351 287.561C284.878 292.58 232.747 305.144 223.014 277.918C223.014 277.918 277.602 254.342 300 225.755C319.106 201.369 330.947 152.713 330.947 152.713C330.947 152.713 345.503 176.008 334.632 190.793C323.76 205.578 337.481 194.865 342.284 192.03C347.088 189.194 338.545 216.449 326.793 219.522C315.041 222.595 317.768 233.245 333.939 228.426C350.109 223.606 323.027 245.403 308.677 250.621C294.326 255.839 309.286 257.211 320.667 254.497C332.047 251.783 304.274 271.373 292.298 266.767C280.321 262.16 281.926 274.251 294.261 279.23C306.596 284.208 283.571 284.15 266.926 275.071C250.28 265.993 255.823 282.543 270.351 287.561Z" fill="black"/>
<path opacity="0.2" d="M45.6387 184.971C43.9807 174.983 36.0009 177.669 29.4065 172.05C22.8121 166.431 21.854 192.401 32.6264 202.112C43.3989 211.822 31.0707 205.718 26.9005 204.29C22.7302 202.861 33.6884 222.594 43.275 223.099C52.8617 223.604 52.4484 232.282 39.1637 231.13C25.8789 229.978 50.3169 242.531 62.2564 244.282C74.196 246.032 62.8354 249.48 53.594 249.193C44.3526 248.907 68.9731 259.642 77.5087 254.167C86.0443 248.692 86.73 258.306 77.9762 264.127C69.2225 269.947 87.035 266.23 98.4714 256.549C109.908 246.868 108.256 260.562 97.8121 266.763C87.3678 272.964 129.722 274.375 132.914 251.75C133.003 251.115 114.513 245.847 114.57 245.226C114.643 244.434 133.253 248.293 133.276 247.524C133.874 227.396 118.008 215.415 116.889 223.981C115.694 233.131 115.103 234.449 108.699 229.675C102.295 224.901 103.185 207.826 99.4542 217.548C95.7236 227.269 96.8661 232.34 90.736 224.84C84.606 217.34 87.5796 195.06 82.3924 210.142C77.2052 225.224 72.2733 220.415 73.0952 212.237C73.9172 204.059 71.6371 187.638 70.6045 195.924C68.7067 211.153 53.1124 212.89 60.1046 204.506C67.0968 196.122 57.2144 169.338 54.8367 181.123C52.4591 192.907 47.2966 194.958 45.6387 184.971Z" fill="#208153"/>
<path d="M53.1425 185.737C51.4846 175.75 43.5048 178.436 36.9104 172.817C30.3159 167.197 29.3579 193.168 40.1303 202.878C50.9027 212.589 38.5746 206.485 34.4043 205.056C30.234 203.627 41.1923 223.361 50.7789 223.866C60.3655 224.37 59.9523 233.048 46.6675 231.897C33.3827 230.745 57.8207 243.297 69.7603 245.048C81.6998 246.799 70.3393 250.246 61.0978 249.96C51.8564 249.674 76.477 260.409 85.0125 254.933C93.5481 249.458 94.2339 259.073 85.4801 264.893C76.7263 270.714 94.5388 266.997 105.975 257.316C117.412 247.635 115.76 261.328 105.316 267.529C94.8717 273.73 137.226 275.142 140.418 252.517C140.507 251.882 122.017 246.614 122.074 245.992C122.147 245.201 140.757 249.06 140.78 248.291C141.378 228.163 125.512 216.182 124.393 224.748C123.198 233.898 122.607 235.215 116.203 230.441C109.799 225.667 110.689 208.593 106.958 218.314C103.227 228.036 104.37 233.107 98.2399 225.607C92.1099 218.107 95.0834 195.827 89.8962 210.909C84.709 225.991 79.7771 221.181 80.5991 213.003C81.421 204.825 79.1409 188.405 78.1083 196.691C76.2106 211.92 60.6162 213.657 67.6084 205.273C74.6006 196.889 64.7182 170.104 62.3406 181.889C59.963 193.674 54.8004 195.725 53.1425 185.737Z" fill="#F5B715"/>
<circle cx="75.8091" cy="183.869" r="2" transform="rotate(-82.9349 75.8091 183.869)" fill="#DDA513"/>
<circle cx="57.2373" cy="170.537" r="2" transform="rotate(-82.9349 57.2373 170.537)" fill="#DDA513"/>
<circle cx="36.0964" cy="164.219" r="2" transform="rotate(-82.9349 36.0964 164.219)" fill="#DDA513"/>
<path opacity="0.1" d="M52.8735 185.798C51.2156 175.81 43.2315 178.497 36.6371 172.878C30.0427 167.259 42.5448 187.102 46.1502 198.346C59.3203 239.421 140.513 248.351 140.513 248.351C140.513 248.351 125.306 216.228 124.187 224.794C122.992 233.944 122.393 235.263 115.989 230.489C109.585 225.715 110.575 208.618 106.845 218.339C103.114 228.061 104.118 233.163 97.9878 225.663C91.8578 218.163 94.9869 195.848 89.7997 210.93C84.6125 226.012 79.4661 221.251 80.2881 213.073C81.11 204.895 78.9225 188.454 77.8899 196.74C75.9921 211.969 60.5239 213.677 67.5161 205.293C74.5082 196.909 64.6258 170.125 62.2482 181.91C59.8706 193.694 54.5314 195.785 52.8735 185.798Z" fill="black"/>
<path d="M64.4756 302.089C67.3901 296.044 69.9484 290.636 72.2816 285.801C72.6575 285.022 85.9428 287.331 85.9428 287.331C85.9428 287.331 74.1445 281.966 74.5127 281.218C76.9054 276.358 79.0828 272.149 81.2139 268.505C81.5715 267.894 98.5185 270.995 98.5185 270.995C98.5185 270.995 83.0291 265.52 83.402 264.945C84.5336 263.202 85.6686 261.612 86.8327 260.161C87.0645 259.872 113.712 268.276 113.712 268.276C113.712 268.276 88.0165 258.744 88.2612 258.469C98.853 246.568 112.564 245.311 147.448 245.621C147.448 245.621 140.615 279.758 124.063 297.372C123.865 297.583 119.463 273.927 119.463 273.927C119.463 273.927 122.996 298.472 122.76 298.704C119.425 301.975 115.715 304.563 111.609 306.092C107.15 307.752 101.867 308.293 96.4793 308.181C95.9673 308.171 103.502 289.371 103.502 289.371C103.502 289.371 93.9212 308.083 93.4114 308.051C78.8305 307.127 64.4756 302.089 64.4756 302.089Z" fill="#F84C6B"/>
<path opacity="0.1" d="M64.4756 302.089C67.3901 296.044 69.9484 290.636 72.2816 285.801C72.6575 285.022 85.9428 287.331 85.9428 287.331C85.9428 287.331 74.1445 281.966 74.5127 281.218C76.9054 276.358 79.0828 272.149 81.2139 268.505C81.5715 267.894 98.5185 270.995 98.5185 270.995C98.5185 270.995 83.0291 265.52 83.402 264.945C84.5336 263.202 85.6686 261.612 86.8327 260.161C87.0645 259.872 113.712 268.276 113.712 268.276C113.712 268.276 88.0165 258.744 88.2612 258.469C98.853 246.568 112.564 245.311 147.448 245.621C121.295 272.858 93.9573 296.163 64.4756 302.089Z" fill="black"/>
<path d="M269.136 301.169C267.141 297.031 265.39 293.33 263.793 290.02C263.536 289.487 254.442 291.067 254.442 291.067C254.442 291.067 262.518 287.395 262.266 286.883C260.628 283.557 259.138 280.676 257.679 278.182C257.434 277.763 245.835 279.886 245.835 279.886C245.835 279.886 256.437 276.138 256.181 275.745C255.407 274.552 254.63 273.463 253.833 272.47C253.675 272.273 235.435 278.025 235.435 278.025C235.435 278.025 253.023 271.501 252.855 271.312C245.606 263.166 236.221 262.306 212.344 262.518C212.344 262.518 217.02 285.884 228.35 297.94C228.486 298.085 231.499 281.893 231.499 281.893C231.499 281.893 229.08 298.693 229.242 298.852C231.525 301.091 234.064 302.863 236.874 303.909C239.926 305.045 243.542 305.415 247.23 305.339C247.581 305.332 242.423 292.464 242.423 292.464C242.423 292.464 248.981 305.272 249.33 305.25C259.31 304.618 269.136 301.169 269.136 301.169Z" fill="#34B6FF"/>
<path opacity="0.1" d="M269.136 301.169C267.141 297.031 265.39 293.33 263.793 290.02C263.536 289.487 254.442 291.067 254.442 291.067C254.442 291.067 262.518 287.395 262.266 286.883C260.628 283.557 259.138 280.676 257.679 278.182C257.434 277.763 245.835 279.886 245.835 279.886C245.835 279.886 256.437 276.138 256.181 275.745C255.407 274.552 254.63 273.463 253.833 272.47C253.675 272.273 235.435 278.025 235.435 278.025C235.435 278.025 253.023 271.501 252.855 271.312C245.606 263.166 236.221 262.306 212.344 262.518C230.244 281.161 248.957 297.113 269.136 301.169Z" fill="black"/>
<path opacity="0.3" d="M139.389 64.6459C139.389 65.7015 138.486 66.6063 137.432 66.6063C136.379 66.6063 135.476 65.7015 135.476 64.6459C135.476 63.5903 136.379 62.6855 137.432 62.6855C138.486 62.6855 139.389 63.5149 139.389 64.6459Z" fill="white"/>
<g filter="url(#filter0_d_578_2350)">
<circle cx="182" cy="230" r="50" transform="rotate(-3.04177 182 230)" fill="#D3E3F1"/>
<circle cx="182" cy="230" r="48" transform="rotate(-3.04177 182 230)" stroke="#123258" stroke-width="4"/>
</g>
<path d="M176.401 228.295C176.401 228.295 176.428 228.794 175.982 229.819C175.536 230.844 172.566 231.503 172.566 231.503L170.649 233.107L172.885 237.494L177.118 241.776L179.173 252.181L185.164 251.863L191.566 230.994C191.566 230.994 188.147 230.421 187.439 228.71C187.14 227.988 186.887 227.738 186.887 227.738L176.401 228.295Z" fill="#FFAF99"/>
<path opacity="0.1" d="M175.982 229.819L176.402 228.295L187.386 227.711L187.466 229.209C187.466 229.209 183.659 231.082 181.054 231.052C179.016 231.028 175.982 229.819 175.982 229.819Z" fill="black"/>
<path d="M181.978 239.014C178.67 239.287 174.537 230.898 174.537 230.898L172.067 231.53L175.121 241.882L179.54 249.659L183.358 264.978L186.03 249.314L193.09 231.414L189.017 230.128C189.017 230.128 185.116 238.755 181.978 239.014Z" fill="#29CB7E"/>
<path opacity="0.15" d="M183.401 246.95L191.566 230.994L185.558 249.839L183.331 264.478L183.401 246.95Z" fill="black"/>
<path opacity="0.15" d="M181.404 247.056L172.067 231.529L178.934 247.688L183.331 264.478L181.404 247.056Z" fill="black"/>
<path d="M200.324 233.546L191.566 230.993L190.572 240.56L184.926 247.369L183.331 264.478L179.933 247.634L177.723 243.746L174.648 242.407L172.067 231.529L163.047 235.525C162.251 235.878 161.648 236.558 161.393 237.39L151.982 268.146L161.787 273.634C168.384 275.286 181.678 278.585 182.077 278.564C182.476 278.543 194.489 276.569 200.445 275.585L213.894 264.856L202.277 235.328C201.937 234.464 201.216 233.806 200.324 233.546Z" fill="white"/>
<path fill-rule="evenodd" clip-rule="evenodd" d="M191.566 230.994L184.453 247.895L183.331 264.478L180.459 248.107L172.067 231.529L175.099 250.896L179.226 253.18L178.912 256.702L183.331 264.478L187.4 256.25L186.715 252.782L189.579 250.126L191.566 230.994Z" fill="#D3E3F1"/>
<path d="M192.982 210.523C193.337 217.215 188.459 226.653 181.841 227.004C175.223 227.356 169.371 218.489 169.016 211.797C168.66 205.105 173.737 199.396 180.355 199.044C186.973 198.692 192.626 203.832 192.982 210.523Z" fill="#FFAF99"/>
<path fill-rule="evenodd" clip-rule="evenodd" d="M192.861 211.73C192.861 211.73 193.683 209.769 193.786 208.441C194.007 205.584 193.064 203.774 191.221 201.557C189.677 199.699 188.355 198.942 186.088 198.05C183.079 196.865 180.986 196.759 177.81 197.41C176.418 197.695 174.711 197.137 174.294 198.49C174.123 199.045 174.512 199.899 174.373 199.972C174.183 200.071 173.338 199.557 172.443 199.855C171.549 200.152 170.494 201.57 169.817 202.154C166.859 204.709 167.006 205.464 166.901 209.329C166.837 211.683 168.312 215.194 168.312 215.194C168.312 215.194 169.141 217.784 170.214 219.953C171.297 222.144 172.623 223.918 172.649 224.414C172.702 225.401 173.031 227.472 173.931 227.856C177.685 229.458 185.03 229.417 188.758 227.608C190.105 226.955 190.096 224.173 190.394 222.897C190.693 221.621 190.9 221.407 191.618 219.356C192.616 216.503 192.264 214.282 192.861 211.73ZM177.429 205.471C179.084 207.165 180.771 208.891 183.429 210.071C185.674 211.067 187.768 211.227 189.782 211.38C190.072 211.402 191.478 211.764 191.765 211.788C191.765 211.788 191.593 215.563 190.984 217.77C190.345 220.084 187.405 222.82 187.405 222.82C186.982 221.762 187.01 220.358 186.108 219.109C185.407 218.138 184.561 217.571 183.801 217.071C183.042 216.572 180.708 216.273 178.84 216.795C177.177 217.259 176.12 217.768 175.118 219.153C174.562 219.921 174.193 222.442 174.193 222.442C174.193 222.442 172.323 220.777 171.281 219.357C170.24 217.936 169.351 214.059 169.351 214.059C169.351 214.059 171.851 211.849 172.987 210.086C174.478 207.77 175.384 203.478 175.384 203.478C176.101 204.112 176.763 204.789 177.429 205.471Z" fill="#0E263F"/>
<path opacity="0.2" d="M183.249 206.4C180.733 204.677 177.938 200.674 177.938 200.674C180.961 202.465 182.278 204.453 185.247 206.294C187.245 207.533 191.923 209.444 191.923 209.444C191.923 209.444 186.211 208.428 183.249 206.4Z" fill="white"/>
<path opacity="0.2" d="M186.041 205.541C184.367 204.457 182.511 201.934 182.511 201.934C184.523 203.06 185.397 204.313 187.372 205.47C188.702 206.249 191.817 207.448 191.817 207.448C191.817 207.448 188.012 206.816 186.041 205.541Z" fill="white"/>
<path d="M183.403 273.185L185.198 277.077L183.392 264.446L183.403 273.185Z" fill="#D3E3F1"/>
<path d="M184.072 221.879C183.174 220.925 182.306 220.547 180.996 220.54C179.761 220.533 178.893 220.792 178.054 221.698C177.087 222.74 178.213 224.693 178.213 224.693L183.705 224.402C183.705 224.402 184.918 222.778 184.072 221.879Z" fill="#FFAF99"/>
<circle cx="182" cy="230" r="48" transform="rotate(-3.04177 182 230)" stroke="#123258" stroke-width="4"/>
<path d="M165.495 267.005L163.084 271.299L166.934 256.736L165.495 267.005Z" fill="#D3E3F1"/>
<path d="M200.836 265.128L203.688 269.142L198.317 255.069L200.836 265.128Z" fill="#D3E3F1"/>
<circle cx="186.067" cy="268.839" r="1" transform="rotate(-3.04177 186.067 268.839)" fill="#D3E3F1"/>
<g filter="url(#filter1_d_578_2350)">
<circle cx="254.5" cy="118.5" r="40.5" transform="rotate(10.9753 254.5 118.5)" fill="white"/>
</g>
<path d="M252.712 114.588C252.712 114.588 252.392 115.739 251.84 116.457C251.289 117.175 246.792 117.831 246.792 117.831L244.97 118.715L245.866 122.602L248.353 126.797L247.927 135.378L252.698 136.303L261.823 121.158C261.823 121.158 257.461 118.988 257.24 117.504C257.147 116.878 257.13 115.445 257.13 115.445L252.712 114.588Z" fill="#FFAF99"/>
<path opacity="0.1" d="M251.841 116.452L252.617 115.079L257.035 115.935L257.241 117.499C257.241 117.499 255.032 118.199 253.722 117.831C252.696 117.543 251.841 116.452 251.841 116.452Z" fill="black"/>
<path d="M252.714 125.58C250.061 125.145 248.61 117.358 248.61 117.358L246.394 117.753L246.763 126.488L248.71 133.467L248.705 146.255L253.878 134.469L262.939 121.787L259.989 119.977C259.989 119.977 255.231 125.992 252.714 125.58Z" fill="#34B6FF"/>
<path opacity="0.15" d="M252.276 132.096L261.823 121.158L253.404 134.79L248.782 145.857L252.276 132.096Z" fill="black"/>
<path opacity="0.15" d="M250.686 131.787L246.394 117.753L248.621 131.799L248.782 145.857L250.686 131.787Z" fill="black"/>
<path d="M267.964 124.741L261.823 121.158L259.165 128.481L253.392 132.724L248.782 145.857L249.416 131.953L248.442 128.464L246.288 126.808L246.394 117.753L238.777 119.079C237.92 119.229 237.17 119.743 236.721 120.488L223.425 142.589L230.054 148.826C234.915 151.418 244.715 156.619 245.033 156.681C245.351 156.743 255.178 157.548 260.052 157.943L272.727 152.151L269.426 126.943C269.306 126.022 268.766 125.209 267.964 124.741Z" fill="#123258"/>
<path fill-rule="evenodd" clip-rule="evenodd" d="M261.823 121.158L252.917 133.045L248.782 145.857L249.736 132.428L246.394 117.753L244.977 133.567L247.772 136.172L246.835 138.878L248.782 145.857L253.594 140.189L253.736 137.329L256.507 135.804L261.823 121.158Z" fill="white"/>
<path d="M266.891 104.503C265.798 110.142 259.885 116.997 254.976 116.045C250.067 115.094 247.145 106.524 248.239 100.886C249.333 95.2469 254.394 91.4855 259.545 92.4844C264.696 93.4833 267.985 98.8642 266.891 104.503Z" fill="#FFAF99"/>
<path d="M268.696 97.8244C267.199 93.2897 262.324 92.6968 259.15 91.8985C258.155 91.6485 257.281 91.0269 256.394 91.5668C255.507 92.1067 255.676 92.6769 255.428 92.7047C255.252 92.7244 255.032 92.1187 254.541 92.0235C254.051 91.9283 251.929 92.7128 250.139 93.7162C247.164 95.3832 245.333 99.2356 244.498 101.79C243.663 104.344 244.235 108.012 243.671 111.307C242.896 115.837 239.298 118.098 241.672 121.615C244.046 125.131 249.005 117.944 249.005 117.944L251.84 116.456L252.617 115.079C252.617 115.079 250.888 112.784 249.942 110.486C248.839 107.801 248.363 105.496 248.916 102.647C249.469 99.7971 249.506 97.9367 251.721 96.0604C253.996 94.1339 255.893 93.1337 258.864 93.3711C262.521 93.6633 265.001 95.5446 266.447 98.9162C267.474 101.31 266.096 105.979 266.096 105.979C266.096 105.979 264.821 109.888 262.895 111.979C260.929 114.114 257.035 115.936 257.035 115.936L257.145 117.994C257.145 117.994 257.393 119.349 257.746 120.148C259.37 123.831 269.285 131.554 267.087 124.506C264.888 117.459 269.406 116.536 269.261 110.667C269.119 104.903 270.193 102.359 268.696 97.8244Z" fill="#8B3F15"/>
<path d="M260 103.269C258.894 98.4708 255.595 98.8496 255.253 96.2367C255.253 96.2367 254.929 96.5829 253.209 98.8962C251.066 101.777 249.818 105.878 249.818 105.878L248.901 100.098L250.835 95.3799L256.41 92.8959L264.359 93.9281C265.345 94.9683 267.398 97.1659 267.714 97.6348C268.031 98.1036 266.196 106.338 265.921 109.51C263.393 107.662 261.107 108.068 260 103.269Z" fill="#8B3F15"/>
<path opacity="0.2" d="M264.037 106.089C262.013 103.808 257.502 95.1445 257.502 95.1445C260.001 97.6148 262.68 103.284 265.114 105.789C266.753 107.475 268.946 107.041 268.946 107.041C268.946 107.041 266.42 108.774 264.037 106.089Z" fill="white"/>
<path opacity="0.2" d="M265.302 104.334C264.238 103.226 261.839 99.041 261.839 99.041C263.15 100.244 264.579 102.98 265.856 104.198C266.717 105.019 267.847 104.828 267.847 104.828C267.847 104.828 266.554 105.638 265.302 104.334Z" fill="white"/>
<path d="M247.13 152.714L247.777 156.125L248.836 145.845L247.13 152.714Z" fill="#D3E3F1"/>
<circle cx="254.5" cy="118.5" r="39" transform="rotate(10.9753 254.5 118.5)" stroke="#0E263F" stroke-width="3"/>
<path d="M234.733 144.344L232.577 147.7L236.389 136.11L234.733 144.344Z" fill="#D3E3F1"/>
<path d="M261.851 149.557L262.363 153.513L263.879 141.406L261.851 149.557Z" fill="#D3E3F1"/>
<circle cx="250.076" cy="149.82" r="0.81" transform="rotate(10.9753 250.076 149.82)" fill="#D3E3F1"/>
<g filter="url(#filter2_d_578_2350)">
<circle cx="97.7886" cy="85.8539" r="31" transform="rotate(-20.9122 97.7886 85.8539)" fill="#D3E3F1"/>
</g>
<path d="M94.4676 85.3256C94.4676 85.3256 94.7248 86.2024 94.6565 86.8922C94.5883 87.582 91.9307 89.8266 91.9307 89.8266L91.1043 91.1379L93.2585 93.3016L96.571 95.0226L99.7634 100.772L103.238 99.444L103.045 85.9115C103.045 85.9115 99.3327 86.2648 98.5891 85.3896C98.2756 85.0205 97.6852 84.0961 97.6852 84.0961L94.4676 85.3256Z" fill="#FFAF99"/>
<path opacity="0.1" d="M94.6554 86.89L94.6042 85.6837L97.8218 84.4543L98.588 85.3873C98.588 85.3873 97.4357 86.7354 96.4353 87.0261C95.6525 87.2535 94.6554 86.89 94.6554 86.89Z" fill="black"/>
<path d="M98.9135 92.4685C97.0132 93.2589 92.9213 88.7846 92.9213 88.7846L91.641 89.9376L95.4126 95.4655L99.4997 99.2136L104.667 107.527L103.264 97.7751L104.025 85.8694L101.376 85.8859C101.376 85.8859 100.716 91.7188 98.9135 92.4685Z" fill="#F5B715"/>
<path opacity="0.15" d="M101.263 96.8807L103.045 85.912L103.085 98.1756L104.557 107.237L101.263 96.8807Z" fill="black"/>
<path opacity="0.15" d="M100.105 97.323L91.641 89.9375L98.7674 98.1658L104.557 107.237L100.105 97.323Z" fill="black"/>
<path d="M108.14 85.768L103.045 85.9122L104.279 91.7462L102.243 96.8385L104.557 107.238L99.3468 97.9451L97.3032 96.071L95.2338 95.8662L91.6412 89.938L87.467 93.6658C86.818 94.2453 86.4527 95.0782 86.4657 95.9482L86.7558 115.367L93.5857 116.739C97.7928 116.459 106.265 115.877 106.497 115.788C106.728 115.7 113.441 112.25 116.769 110.536L122.664 101.646L110.545 86.8647C109.956 86.1467 109.068 85.7417 108.14 85.768Z" fill="white"/>
<path fill-rule="evenodd" clip-rule="evenodd" d="M103.045 85.9117L102.063 97.2383L104.557 107.237L99.7468 98.1235L91.641 89.9375L97.1147 100.789L99.9846 101.351L100.47 103.489L104.557 107.237L105.392 101.608L104.328 99.6915L105.512 97.5797L103.045 85.9117Z" fill="#123258"/>
<path d="M99.6053 73.0381C101.175 77.1449 100.103 83.9917 96.5284 85.3578C92.9533 86.7238 87.5894 82.336 86.0201 78.2291C84.4508 74.1222 86.2199 69.6309 89.9713 68.1975C93.7228 66.764 98.0361 68.9312 99.6053 73.0381Z" fill="#FFAF99"/>
<path d="M89.4773 67.9765C91.8631 67.2118 95.271 65.6262 98.0777 67.9679C104.504 73.3295 105.5 81.9997 98.7258 85.7472L97.8218 84.4538C97.8218 84.4538 99.6162 81.6955 100.031 79.5127C100.437 77.3747 99.685 74.3187 99.685 74.3187C99.685 74.3187 98.693 70.7276 97.0575 69.5868C94.7544 67.9803 92.382 67.7603 89.8871 69.049C87.8601 70.0961 87.0314 71.5133 86.3323 73.685C85.6515 75.7999 86.3792 77.0243 87.1723 79.0998C87.9654 81.1754 89.206 82.4809 91.0089 83.7794C92.5525 84.8912 94.6043 85.6832 94.6043 85.6832L94.6518 86.7806C94.8213 86.7515 94.8374 86.7722 94.6566 86.8924L94.6518 86.7806C93.5621 86.9679 86.1348 89.2138 83.9547 80.3293C83.4645 78.3315 83.0965 75.0876 84.3559 72.8013C85.114 71.4251 86.1753 70.0576 86.5328 69.921C86.8904 69.7844 87.2781 70.0893 87.3845 70.0053C87.5347 69.8867 87.1941 69.5846 87.5523 68.875C87.9106 68.1654 88.7299 68.2161 89.4773 67.9765Z" fill="#0E263F"/>
<path d="M94.6275 75.0219C91.9681 72.3507 89.9771 73.9309 88.6982 72.3711C88.6982 72.3711 88.6281 72.7267 88.4453 74.9259C88.2177 77.6643 89.0644 80.8349 89.0644 80.8349L86.1317 77.4488L85.4806 73.6005L88.0995 69.7319L93.683 67.1887C94.7448 67.4658 96.9674 68.0642 97.3626 68.2409C97.7579 68.4176 99.8952 74.5113 100.999 76.6845C98.6085 76.5052 97.287 77.693 94.6275 75.0219Z" fill="#0E263F"/>
<path opacity="0.2" d="M98.3915 75.2233C96.1533 74.5591 89.7184 70.7529 89.7184 70.7529C92.3416 71.3478 96.3752 73.9486 98.9699 74.5925C100.717 75.026 101.967 73.8572 101.967 73.8572C101.967 73.8572 101.026 76.005 98.3915 75.2233Z" fill="white"/>
<path opacity="0.2" d="M98.5039 73.571C97.3642 73.2809 94.1131 71.5312 94.1131 71.5312C95.4515 71.7826 97.4864 72.9831 98.8095 73.2586C99.7001 73.444 100.358 72.8626 100.358 72.8626C100.358 72.8626 99.8454 73.9124 98.5039 73.571Z" fill="white"/>
<path d="M106.255 112.362L108.055 114.317L104.586 107.207L106.255 112.362Z" fill="#D3E3F1"/>
<path d="M94.5124 112.122L93.907 115.115L93.408 105.789L94.5124 112.122Z" fill="#D3E3F1"/>
<path d="M115.009 104.29L117.456 106.116L111.609 98.8339L115.009 104.29Z" fill="#D3E3F1"/>
<circle cx="107" cy="109.29" r="0.62" transform="rotate(-20.9122 107 109.29)" fill="#D3E3F1"/>
<circle cx="97.2114" cy="87.1459" r="30" transform="rotate(-20.9122 97.2114 87.1459)" stroke="#123258" stroke-width="2"/>
</g>
<defs>
<filter id="filter0_d_578_2350" x="127.999" y="175.999" width="104.003" height="104.002" filterUnits="userSpaceOnUse" color-interpolation-filters="sRGB">
<feFlood flood-opacity="0" result="BackgroundImageFix"/>
<feColorMatrix in="SourceAlpha" type="matrix" values="0 0 0 0 0 0 0 0 0 0 0 0 0 0 0 0 0 0 127 0" result="hardAlpha"/>
<feOffset dx="-4" dy="-4"/>
<feComposite in2="hardAlpha" operator="out"/>
<feColorMatrix type="matrix" values="0 0 0 0 0.0706076 0 0 0 0 0.197211 0 0 0 0 0.345833 0 0 0 0.2 0"/>
<feBlend mode="normal" in2="BackgroundImageFix" result="effect1_dropShadow_578_2350"/>
<feBlend mode="normal" in="SourceGraphic" in2="effect1_dropShadow_578_2350" result="shape"/>
</filter>
<filter id="filter1_d_578_2350" x="210.992" y="77.9922" width="84.0151" height="84.0156" filterUnits="userSpaceOnUse" color-interpolation-filters="sRGB">
<feFlood flood-opacity="0" result="BackgroundImageFix"/>
<feColorMatrix in="SourceAlpha" type="matrix" values="0 0 0 0 0 0 0 0 0 0 0 0 0 0 0 0 0 0 127 0" result="hardAlpha"/>
<feOffset dx="-3" dy="3"/>
<feComposite in2="hardAlpha" operator="out"/>
<feColorMatrix type="matrix" values="0 0 0 0 0.0706076 0 0 0 0 0.197211 0 0 0 0 0.345833 0 0 0 0.2 0"/>
<feBlend mode="normal" in2="BackgroundImageFix" result="effect1_dropShadow_578_2350"/>
<feBlend mode="normal" in="SourceGraphic" in2="effect1_dropShadow_578_2350" result="shape"/>
</filter>
<filter id="filter2_d_578_2350" x="66.7802" y="54.8457" width="64.0167" height="64.0166" filterUnits="userSpaceOnUse" color-interpolation-filters="sRGB">
<feFlood flood-opacity="0" result="BackgroundImageFix"/>
<feColorMatrix in="SourceAlpha" type="matrix" values="0 0 0 0 0 0 0 0 0 0 0 0 0 0 0 0 0 0 127 0" result="hardAlpha"/>
<feOffset dx="2" dy="2"/>
<feComposite in2="hardAlpha" operator="out"/>
<feColorMatrix type="matrix" values="0 0 0 0 0.0706076 0 0 0 0 0.197211 0 0 0 0 0.345833 0 0 0 0.2 0"/>
<feBlend mode="normal" in2="BackgroundImageFix" result="effect1_dropShadow_578_2350"/>
<feBlend mode="normal" in="SourceGraphic" in2="effect1_dropShadow_578_2350" result="shape"/>
</filter>
<clipPath id="clip0_578_2350">
<rect width="375" height="321" fill="white"/>
</clipPath>
<clipPath id="clip1_578_2350">
<rect width="24" height="24" fill="white" transform="translate(170.978 49.4062) rotate(-25.7553)"/>
</clipPath>
</defs>
</svg>
