<svg width="375" height="321" viewBox="0 0 375 321" fill="none" xmlns="http://www.w3.org/2000/svg">
<g clip-path="url(#clip0_578_2255)">
<path d="M68.2288 186.696C77.9883 231.189 53.652 268.525 91.0425 294.542C121.115 315.467 209.777 313.467 248.664 309.578C275.599 306.884 282.819 263.748 296.883 240.619C315.716 209.648 329.952 199.086 330.585 162.845C331.375 117.682 311.465 92.8406 280.81 59.6655C260.067 37.2172 275.302 17.7835 246.071 8.85344C207.535 -2.91915 181.408 -2.9831 142.892 8.85344C107.725 19.6607 87.7344 31.9304 63.5625 59.6655C26.5393 102.147 56.1557 131.654 68.2288 186.696Z" fill="#F6F8FB"/>
<path opacity="0.2" d="M326.064 86.5799C334.63 85.9487 332.976 78.9993 338.232 73.8605C343.488 68.7217 321.618 65.9109 312.584 74.2646C303.549 82.6183 309.656 72.6722 311.185 69.2587C312.713 65.8452 295.195 73.5836 294.03 81.6447C292.865 89.7059 285.564 88.6881 287.561 77.552C289.558 66.416 277.069 86.0973 274.67 96.0505C272.27 106.004 270.233 96.1391 271.187 88.3528C272.141 80.5665 261.174 100.542 265.142 108.176C269.11 115.81 260.934 115.648 256.691 107.803C252.447 99.9586 254.215 115.295 261.514 125.704C268.812 136.113 257.369 133.663 252.935 124.36C248.5 115.058 244.043 150.736 262.914 155.176C263.444 155.3 269.32 140.084 269.841 140.18C270.504 140.302 265.809 155.729 266.457 155.807C283.418 157.864 294.764 145.381 287.612 143.776C279.973 142.061 278.906 141.46 283.433 136.417C287.96 131.374 302.318 133.441 294.392 129.54C286.465 125.639 282.092 126.214 288.902 121.612C295.711 117.01 314.307 121.24 301.963 115.695C289.62 110.15 294.064 106.353 300.91 107.678C307.757 109.003 321.807 108.341 314.885 106.83C302.164 104.053 301.898 90.7433 308.443 97.2973C314.988 103.851 338.381 97.5653 328.606 94.6482C318.832 91.7312 317.497 87.2111 326.064 86.5799Z" fill="#208153"/>
<path d="M324.838 92.8612C333.405 92.23 331.75 85.2806 337.006 80.1417C342.262 75.0029 320.393 72.1922 311.358 80.5459C302.323 88.8996 308.43 78.9535 309.959 75.54C311.488 72.1265 293.97 79.8648 292.805 87.926C291.639 95.9872 284.339 94.9693 286.336 83.8333C288.333 72.6973 275.843 92.3785 273.444 102.332C271.045 112.285 269.007 102.42 269.961 94.6341C270.915 86.8477 259.948 106.823 263.916 114.457C267.885 122.091 259.708 121.93 255.465 114.085C251.222 106.24 252.989 121.577 260.288 131.986C267.587 142.395 256.144 139.944 251.709 130.642C247.274 121.339 242.818 157.017 261.689 161.457C262.218 161.582 268.094 146.365 268.615 146.461C269.278 146.583 264.584 162.01 265.231 162.088C282.192 164.145 293.538 151.662 286.387 150.057C278.748 148.342 277.68 147.741 282.207 142.698C286.734 137.655 301.092 139.723 293.166 135.821C285.24 131.92 280.867 132.495 287.676 127.893C294.485 123.292 313.081 127.521 300.738 121.976C288.394 116.431 292.838 112.634 299.685 113.959C306.531 115.284 320.581 114.623 313.66 113.112C300.938 110.335 300.672 97.0246 307.217 103.579C313.762 110.133 337.155 103.847 327.381 100.929C317.607 98.0124 316.272 93.4924 324.838 92.8612Z" fill="#34B6FF"/>
<circle cx="324.671" cy="112.157" r="1.69688" transform="rotate(12.2761 324.671 112.157)" fill="#34B6FF"/>
<circle cx="337.366" cy="97.4925" r="1.69688" transform="rotate(12.2761 337.366 97.4925)" fill="#34B6FF"/>
<circle cx="344.333" cy="80.1165" r="1.69688" transform="rotate(12.2761 344.333 80.1165)" fill="#34B6FF"/>
<path opacity="0.1" d="M324.808 92.629C333.374 91.9978 331.719 85.0447 336.975 79.9059C342.231 74.7671 324.502 83.8014 314.723 85.9813C279.003 93.944 265.201 161.859 265.201 161.859C265.201 161.859 293.515 151.485 286.363 149.879C278.724 148.165 277.656 147.556 282.183 142.513C286.71 137.47 301.08 139.625 293.153 135.724C285.227 131.822 280.838 132.277 287.647 127.676C294.457 123.074 313.07 127.438 300.727 121.893C288.383 116.347 292.803 112.366 299.649 113.691C306.496 115.015 320.556 114.434 313.635 112.923C300.913 110.146 300.662 96.9447 307.207 103.499C313.752 110.053 337.145 103.767 327.371 100.85C317.596 97.9325 316.241 93.2602 324.808 92.629Z" fill="black"/>
<path d="M59.0063 42.6241C63.4927 44.7873 67.506 46.686 71.0952 48.4177C71.6734 48.6966 69.9595 58.5568 69.9595 58.5568C69.9595 58.5568 73.9415 49.8003 74.4965 50.0735C78.1033 51.8493 81.2273 53.4653 83.9315 55.0471C84.3852 55.3124 82.0835 67.8903 82.0835 67.8903C82.0835 67.8903 86.1474 56.3942 86.5737 56.671C87.8676 57.5109 89.0479 58.3532 90.1243 59.2172C90.3387 59.3893 84.102 79.1669 84.102 79.1669C84.102 79.1669 91.176 60.0958 91.38 60.2774C100.213 68.1385 101.146 78.3145 100.916 104.205C100.916 104.205 75.5802 99.1339 62.5072 86.8493C62.3502 86.7018 79.9078 83.4347 79.9078 83.4347C79.9078 83.4347 61.6904 86.0573 61.5186 85.8821C59.0911 83.4068 57.1697 80.6534 56.0354 77.6062C54.8035 74.2965 54.4017 70.3757 54.4845 66.3768C54.4923 65.9968 68.4455 71.5892 68.4455 71.5892C68.4455 71.5892 54.5573 64.4782 54.5813 64.0998C55.2668 53.2781 59.0063 42.6241 59.0063 42.6241Z" fill="#F84C6B"/>
<path opacity="0.1" d="M59.0063 42.6241C63.4927 44.7873 67.506 46.686 71.0952 48.4177C71.6734 48.6966 69.9595 58.5568 69.9595 58.5568C69.9595 58.5568 73.9415 49.8003 74.4965 50.0735C78.1033 51.8493 81.2273 53.4653 83.9315 55.0471C84.3852 55.3124 82.0835 67.8903 82.0835 67.8903C82.0835 67.8903 86.1474 56.3942 86.5737 56.671C87.8676 57.5109 89.0479 58.3532 90.1243 59.2172C90.3387 59.3893 84.102 79.1669 84.102 79.1669C84.102 79.1669 91.176 60.0958 91.38 60.2774C100.213 68.1385 101.146 78.3145 100.916 104.205C80.7008 84.7948 63.404 64.505 59.0063 42.6241Z" fill="black"/>
<path d="M250.58 142.295C250.58 142.295 246.471 113.837 251.946 97.0145C258.926 75.5652 288.291 52.123 288.291 52.123" stroke="#29CB7E"/>
<ellipse cx="286.798" cy="57.4101" rx="1.66547" ry="4.33022" transform="rotate(91.7279 286.798 57.4101)" fill="#29CB7E"/>
<ellipse cx="279.918" cy="64.5341" rx="1.66547" ry="4.33022" transform="rotate(91.7279 279.918 64.5341)" fill="#29CB7E"/>
<ellipse cx="273.725" cy="71.0118" rx="1.66547" ry="4.33022" transform="rotate(98.9963 273.725 71.0118)" fill="#1C7C4F"/>
<ellipse cx="267.531" cy="77.4902" rx="1.66547" ry="4.33022" transform="rotate(91.7279 267.531 77.4902)" fill="#29CB7E"/>
<ellipse cx="262.639" cy="85.0072" rx="1.99856" ry="4.99641" transform="rotate(91.7279 262.639 85.0072)" fill="#123258"/>
<ellipse cx="256.006" cy="93.2891" rx="1.99856" ry="4.99641" transform="rotate(69.3128 256.006 93.2891)" fill="#1C7C4F"/>
<ellipse cx="253.69" cy="106.688" rx="2.46065" ry="6.15162" transform="rotate(69.3128 253.69 106.688)" fill="#123258"/>
<ellipse cx="252.077" cy="115.97" rx="2.46065" ry="6.15162" transform="rotate(69.3128 252.077 115.97)" fill="#1C7C4F"/>
<ellipse cx="252.761" cy="125.356" rx="2.46065" ry="4.31458" transform="rotate(69.3128 252.761 125.356)" fill="#123258"/>
<ellipse cx="257.959" cy="77.1612" rx="1.9531" ry="5.07805" transform="rotate(160.482 257.959 77.1612)" fill="#1C7C4F"/>
<ellipse cx="251.266" cy="87.4415" rx="1.9531" ry="5.07805" transform="rotate(160.482 251.266 87.4415)" fill="#123258"/>
<ellipse cx="247.027" cy="100.672" rx="2.49116" ry="6.477" transform="rotate(160.482 247.027 100.672)" fill="#1C7C4F"/>
<ellipse cx="244.78" cy="111.028" rx="2.49116" ry="6.477" transform="rotate(141.696 244.78 111.028)" fill="#123258"/>
<ellipse cx="243.551" cy="123.061" rx="2.49116" ry="6.477" transform="rotate(112.607 243.551 123.061)" fill="#1C7C4F"/>
<ellipse cx="265.088" cy="70.0851" rx="1.66547" ry="4.33022" transform="rotate(171.955 265.088 70.0851)" fill="#29CB7E"/>
<ellipse cx="271.302" cy="62.9408" rx="1.66547" ry="4.33022" transform="rotate(162.337 271.302 62.9408)" fill="#29CB7E"/>
<ellipse cx="278.848" cy="55.8369" rx="1.66547" ry="4.33022" transform="rotate(166.15 278.848 55.8369)" fill="#1C7C4F"/>
<ellipse cx="291.68" cy="50.2263" rx="1.66547" ry="4.33022" transform="rotate(61.6259 291.68 50.2263)" fill="#29CB7E"/>
<g filter="url(#filter0_d_578_2255)">
<rect x="84.3507" y="84.0996" width="156.584" height="192.878" rx="5" transform="rotate(-10.698 84.3507 84.0996)" fill="#123258"/>
</g>
<path d="M102.659 102.803L226.971 79.3184L256.423 235.219L131.16 262.049L102.659 102.803Z" fill="white"/>
<path d="M106.157 98.9766L226.971 79.3188L257.788 231.268L132.428 257.589L106.157 98.9766Z" fill="#D3E3F1"/>
<rect x="106.734" y="102.033" width="122.364" height="154.51" transform="rotate(-10.698 106.734 102.033)" fill="white"/>
<rect x="103.91" y="69.9265" width="9.1849" height="20.5917" rx="4" transform="rotate(-10.698 103.91 69.9265)" fill="#F5B715" stroke="#F6F8FB" stroke-width="4"/>
<rect x="121.232" y="66.6541" width="9.1849" height="20.5917" rx="4" transform="rotate(-10.698 121.232 66.6541)" fill="#F5B715" stroke="#F6F8FB" stroke-width="4"/>
<rect x="138.555" y="63.3816" width="9.1849" height="20.5917" rx="4" transform="rotate(-10.698 138.555 63.3816)" fill="#F5B715" stroke="#F6F8FB" stroke-width="4"/>
<rect x="155.877" y="60.1092" width="9.1849" height="20.5917" rx="4" transform="rotate(-10.698 155.877 60.1092)" fill="#F5B715" stroke="#F6F8FB" stroke-width="4"/>
<rect x="173.199" y="56.8367" width="9.1849" height="20.5917" rx="4" transform="rotate(-10.698 173.199 56.8367)" fill="#F5B715" stroke="#F6F8FB" stroke-width="4"/>
<rect x="190.521" y="53.5642" width="9.1849" height="20.5917" rx="4" transform="rotate(-10.698 190.521 53.5642)" fill="#F5B715" stroke="#F6F8FB" stroke-width="4"/>
<rect x="207.844" y="50.2918" width="9.1849" height="20.5917" rx="4" transform="rotate(-10.698 207.844 50.2918)" fill="#F5B715" stroke="#F6F8FB" stroke-width="4"/>
<circle cx="159.825" cy="215.476" r="21.7766" transform="rotate(-10.698 159.825 215.476)" fill="#F84C6B"/>
<rect x="152.862" y="200.962" width="8.29585" height="31.1094" rx="2" transform="rotate(-10.698 152.862 200.962)" fill="white"/>
<rect x="145.311" y="222.439" width="8.29585" height="31.1094" rx="2" transform="rotate(-100.698 145.311 222.439)" fill="white"/>
<rect x="125.291" y="116.468" width="95.4022" height="25.9245" transform="rotate(-10.698 125.291 116.468)" fill="#4C6780"/>
<rect x="132.029" y="152.132" width="95.4022" height="4.14792" rx="2" transform="rotate(-10.698 132.029 152.132)" fill="#D3E3F1"/>
<rect x="134.146" y="163.34" width="95.4022" height="4.14792" rx="2" transform="rotate(-10.698 134.146 163.34)" fill="#D3E3F1"/>
<rect x="136.264" y="174.549" width="50.8121" height="4.14792" rx="2" transform="rotate(-10.698 136.264 174.549)" fill="#D3E3F1"/>
<rect x="182.966" y="181.556" width="50.8121" height="4.14792" rx="2" transform="rotate(-10.698 182.966 181.556)" fill="#D3E3F1"/>
<rect x="185.276" y="193.783" width="50.8121" height="4.14792" rx="2" transform="rotate(-10.698 185.276 193.783)" fill="#D3E3F1"/>
<rect x="187.586" y="206.011" width="23.8506" height="4.14792" rx="2" transform="rotate(-10.698 187.586 206.011)" fill="#D3E3F1"/>
<path opacity="0.2" d="M37.0522 218.736C26.1739 220.16 26.4471 211.04 18.5446 205.971C10.6422 200.902 37.2706 191.733 50.7305 199.847C64.1905 207.961 53.9807 197.099 51.1865 193.224C48.3923 189.35 72.3042 194.501 75.845 204.283C79.3858 214.065 88.2544 210.905 82.8784 197.492C77.5025 184.079 98.2111 205.469 103.785 217.298C109.358 229.128 109.357 216.262 106.151 206.77C102.946 197.277 121.827 219.428 118.836 230.002C115.845 240.576 126.031 238.261 129.311 227.352C132.591 216.443 134.344 236.083 127.905 250.989C121.466 265.896 135.145 259.873 138.288 247.091C141.431 234.309 156.226 277.783 133.77 288.215C133.14 288.508 121.857 270.993 121.231 271.247C120.432 271.572 130.292 289.654 129.502 289.92C108.818 296.876 91.4005 284.195 99.931 280.339C109.043 276.22 110.223 275.192 103.257 270.054C96.2907 264.916 78.8659 271.213 87.7721 264.285C96.6782 257.357 102.296 256.945 92.5898 252.949C82.8833 248.954 60.7162 259.05 74.7225 248.924C88.7289 238.798 82.1892 235.197 73.9679 238.624C65.7465 242.05 48.0014 244.855 56.2687 241.176C71.4629 234.414 68.3554 217.697 61.8627 227.587C55.3701 237.476 24.4854 235.66 35.9571 229.485C47.4288 223.31 47.9306 217.311 37.0522 218.736Z" fill="#208153"/>
<path d="M40.9289 213.401C30.0505 214.825 30.3237 205.705 22.4213 200.636C14.5189 195.567 41.1472 186.398 54.6072 194.512C68.0671 202.626 57.8574 191.764 55.0632 187.889C52.269 184.015 76.1808 189.166 79.7216 198.948C83.2624 208.73 92.131 205.57 86.7551 192.157C81.3792 178.744 102.088 200.134 107.661 211.963C113.235 223.793 113.234 210.927 110.028 201.435C106.822 191.942 125.703 214.093 122.713 224.667C119.722 235.242 129.907 232.926 133.188 222.017C136.468 211.108 138.22 230.748 131.781 245.654C125.343 260.561 139.022 254.538 142.165 241.756C145.308 228.974 160.103 272.448 137.647 282.88C137.016 283.173 125.734 265.658 125.107 265.912C124.309 266.237 134.169 284.32 133.379 284.585C112.695 291.542 95.2772 278.86 103.808 275.004C112.92 270.885 114.099 269.857 107.133 264.719C100.167 259.581 82.7425 265.878 91.6487 258.95C100.555 252.022 106.173 251.61 96.4665 247.614C86.7599 243.619 64.5928 253.715 78.5992 243.589C92.6055 233.463 86.0659 229.863 77.8445 233.289C69.6232 236.715 51.878 239.52 60.1453 235.841C75.3396 229.079 72.232 212.362 65.7394 222.252C59.2467 232.141 28.3621 230.325 39.8338 224.15C51.3055 217.975 51.8072 211.976 40.9289 213.401Z" fill="#29CB7E"/>
<path opacity="0.1" d="M142.165 241.755C145.307 228.973 160.103 272.448 137.647 282.879C137.647 282.879 113.267 238.172 87.1343 221.309C64.8422 206.924 22.4212 200.635 22.4212 200.635C22.4212 200.635 41.1471 186.398 54.6071 194.512C68.067 202.626 57.8573 191.763 55.0631 187.889C52.2689 184.014 76.1807 189.166 79.7216 198.948C83.2624 208.729 92.1309 205.569 86.755 192.156C81.3791 178.743 102.088 200.133 107.661 211.963C113.235 223.792 113.234 210.927 110.028 201.434C106.822 191.941 125.703 214.092 122.713 224.667C119.722 235.241 129.907 232.926 133.187 222.016C136.468 211.107 138.22 230.748 131.781 245.654C125.342 260.56 139.022 254.537 142.165 241.755Z" fill="black"/>
<path d="M155.789 236.734C151.498 238.802 147.66 240.618 144.227 242.274C143.674 242.541 145.313 251.971 145.313 251.971C145.313 251.971 141.505 243.596 140.974 243.858C137.525 245.556 134.537 247.102 131.951 248.614C131.517 248.868 133.719 260.897 133.719 260.897C133.719 260.897 129.832 249.903 129.424 250.167C128.187 250.97 127.058 251.776 126.029 252.602C125.824 252.767 131.788 271.681 131.788 271.681C131.788 271.681 125.023 253.443 124.828 253.616C116.38 261.134 115.488 270.866 115.709 295.626C115.709 295.626 139.938 290.777 152.44 279.028C152.591 278.887 135.799 275.763 135.799 275.763C135.799 275.763 153.222 278.271 153.386 278.103C155.707 275.736 157.545 273.103 158.63 270.189C159.808 267.023 160.192 263.274 160.113 259.449C160.105 259.086 146.761 264.434 146.761 264.434C146.761 264.434 160.043 257.634 160.02 257.272C159.365 246.922 155.789 236.734 155.789 236.734Z" fill="#34B6FF"/>
<path opacity="0.1" d="M155.789 236.734C151.498 238.802 147.66 240.618 144.227 242.274C143.674 242.541 145.313 251.971 145.313 251.971C145.313 251.971 141.505 243.596 140.974 243.858C137.525 245.556 134.537 247.102 131.951 248.614C131.517 248.868 133.719 260.897 133.719 260.897C133.719 260.897 129.832 249.903 129.424 250.167C128.187 250.97 127.058 251.776 126.029 252.602C125.824 252.767 131.788 271.681 131.788 271.681C131.788 271.681 125.023 253.443 124.828 253.616C116.38 261.134 115.488 270.866 115.709 295.626C135.041 277.063 151.583 257.659 155.789 236.734Z" fill="black"/>
<ellipse opacity="0.2" cx="269.242" cy="274.462" rx="38.3683" ry="10.8552" transform="rotate(-6.87205 269.242 274.462)" fill="#123258"/>
<ellipse cx="271.674" cy="256.386" rx="38.3683" ry="16.5279" transform="rotate(7.33847 271.674 256.386)" fill="#D3E3F1"/>
<path d="M244.879 186.603L254.636 176.758L308.332 183.673L315.276 195.669C316.816 198.329 317.438 201.422 317.045 204.471L309.736 261.224L233.628 251.422L240.937 194.669C241.33 191.621 242.715 188.786 244.879 186.603Z" fill="#D3E3F1"/>
<path d="M263.447 240.62L266.558 215.214C266.558 215.214 274.853 219.362 292.223 218.325C309.592 217.288 314.777 214.177 314.777 214.177L311.666 239.064C311.666 239.064 303.37 242.694 289.112 243.471C274.853 244.249 263.447 240.62 263.447 240.62Z" fill="white"/>
<path opacity="0.05" d="M305.444 189.289C302.852 190.844 299.222 190.844 299.222 190.844C299.222 190.844 313.222 198.621 313.222 201.732C313.222 204.843 307 254.618 307 257.211C307 259.803 302.852 269.136 302.852 269.136C302.852 269.136 309.074 264.988 309.074 262.914C309.074 260.84 316.851 202.769 316.851 200.695C316.851 198.621 309.074 185.141 309.074 185.141C309.074 185.141 308.037 187.733 305.444 189.289Z" fill="black"/>
<path opacity="0.4" d="M245.299 193.955C246.336 190.844 256.188 180.993 256.188 180.993L262.928 186.178C262.928 186.178 252.04 190.844 251.003 195.511C249.966 200.177 245.299 248.915 245.299 253.063C245.299 257.211 249.966 267.581 249.966 267.581C249.966 267.581 245.707 265.619 243.225 263.952C240.837 262.347 237.522 259.285 237.522 259.285C237.522 259.285 244.262 197.066 245.299 193.955Z" fill="white"/>
<ellipse cx="281.843" cy="182.047" rx="27.1529" ry="9.4445" transform="rotate(7.33847 281.843 182.047)" fill="#E3B130"/>
<rect x="257.928" y="155.161" width="54.3059" height="23.6113" transform="rotate(7.33847 257.928 155.161)" fill="#E3B130"/>
<path opacity="0.3" d="M256.188 182.03L260.854 159.217L265.002 163.138L262.928 186.697C262.928 186.697 261.43 186.15 260.854 185.66C260.278 185.17 259.817 185.141 258.089 183.727C256.361 182.313 256.188 182.03 256.188 182.03Z" fill="white"/>
<path opacity="0.05" d="M307.135 188.038L308.435 164.789L303.425 167.524L299.429 190.834C299.429 190.834 301.016 190.687 301.698 190.359C302.38 190.032 302.833 190.122 304.865 189.195C306.896 188.268 307.135 188.038 307.135 188.038Z" fill="black"/>
<ellipse cx="284.708" cy="159.8" rx="27.1529" ry="9.4445" transform="rotate(7.33847 284.708 159.8)" fill="#F5B715"/>
<rect opacity="0.1" x="310.632" y="293.773" width="13.4808" height="29.96" rx="6.74038" transform="rotate(-113.608 310.632 293.773)" fill="#123258"/>
<rect x="309.11" y="289.606" width="12.9808" height="29.46" rx="6.49038" transform="rotate(-105 309.11 289.606)" fill="white" stroke="#D3E3F1" stroke-width="0.5"/>
<path d="M315.444 288.168C311.849 289.131 308.153 286.997 307.189 283.401C306.226 279.806 308.359 276.11 311.955 275.146L316.102 274.035C319.34 273.168 322.667 275.089 323.535 278.326L323.882 279.624C324.75 282.861 322.829 286.189 319.591 287.056L315.444 288.168Z" fill="#F84C6B"/>
<path opacity="0.05" d="M308.555 285.729C307 284.173 307 280.025 307 280.025L335.517 279.507L333.961 282.618C333.961 282.618 317.888 288.321 314.777 288.321C311.666 288.321 310.111 287.284 308.555 285.729Z" fill="black"/>
<rect opacity="0.15" x="307.254" y="293.752" width="13.4808" height="29.96" rx="6.74038" transform="rotate(124.114 307.254 293.752)" fill="#123258"/>
<rect x="309.488" y="290.51" width="13.4808" height="29.96" rx="6.74038" transform="rotate(120 309.488 290.51)" fill="#34B6FF"/>
<path d="M303.526 287.356C306.631 289.148 307.694 293.118 305.902 296.222C304.11 299.326 300.14 300.39 297.036 298.598L293.318 296.451C290.535 294.844 289.581 291.286 291.188 288.503L291.86 287.339C293.467 284.556 297.025 283.603 299.808 285.209L303.526 287.356Z" fill="white" stroke="#D3E3F1" stroke-width="0.5"/>
<path opacity="0.05" d="M279.52 286.246C279.001 283.654 280.557 280.543 280.557 280.543L305.444 296.616C305.444 296.616 303.37 299.727 300.259 299.727C297.148 299.727 281.594 289.876 281.594 289.876C281.594 289.876 280.038 288.838 279.52 286.246Z" fill="black"/>
</g>
<defs>
<filter id="filter0_d_578_2255" x="78.191" y="55.873" width="194.986" height="222.912" filterUnits="userSpaceOnUse" color-interpolation-filters="sRGB">
<feFlood flood-opacity="0" result="BackgroundImageFix"/>
<feColorMatrix in="SourceAlpha" type="matrix" values="0 0 0 0 0 0 0 0 0 0 0 0 0 0 0 0 0 0 127 0" result="hardAlpha"/>
<feOffset dx="-7" dy="6"/>
<feComposite in2="hardAlpha" operator="out"/>
<feColorMatrix type="matrix" values="0 0 0 0 0.0706076 0 0 0 0 0.197211 0 0 0 0 0.345833 0 0 0 0.2 0"/>
<feBlend mode="normal" in2="BackgroundImageFix" result="effect1_dropShadow_578_2255"/>
<feBlend mode="normal" in="SourceGraphic" in2="effect1_dropShadow_578_2255" result="shape"/>
</filter>
<clipPath id="clip0_578_2255">
<rect width="375" height="321" fill="white"/>
</clipPath>
</defs>
</svg>
