<svg width="375" height="214" viewBox="0 0 375 214" fill="none" xmlns="http://www.w3.org/2000/svg">
<path d="M127.062 125.459C132.06 148.271 119.596 167.414 138.747 180.753C154.15 191.481 199.562 190.456 219.479 188.462C233.275 187.081 236.973 164.965 244.177 153.106C253.823 137.227 261.114 131.812 261.439 113.23C261.843 90.0744 251.646 77.3379 235.944 60.3286C225.32 48.8191 233.123 38.8551 218.151 34.2766C198.413 28.2406 185.031 28.2078 165.303 34.2766C147.291 39.8176 137.052 46.1085 124.672 60.3286C105.709 82.1092 120.878 97.238 127.062 125.459Z" fill="#F6F8FB"/>
<path d="M268.638 153.42C265.486 154.939 262.667 156.273 260.146 157.49C259.739 157.686 260.943 164.613 260.943 164.613C260.943 164.613 258.146 158.461 257.756 158.653C255.222 159.901 253.028 161.036 251.128 162.147C250.809 162.333 252.426 171.17 252.426 171.17C252.426 171.17 249.571 163.093 249.272 163.288C248.363 163.878 247.533 164.47 246.777 165.077C246.627 165.198 251.008 179.092 251.008 179.092C251.008 179.092 246.038 165.694 245.895 165.821C239.69 171.344 239.034 178.493 239.196 196.681C239.196 196.681 256.995 193.119 266.179 184.489C266.289 184.385 253.955 182.09 253.955 182.09C253.955 182.09 266.753 183.932 266.873 183.809C268.579 182.07 269.928 180.136 270.725 177.995C271.591 175.67 271.873 172.916 271.815 170.106C271.809 169.839 262.007 173.768 262.007 173.768C262.007 173.768 271.764 168.773 271.747 168.507C271.265 160.904 268.638 153.42 268.638 153.42Z" fill="#18DF80"/>
<path opacity="0.1" d="M268.638 153.42C265.486 154.939 262.667 156.273 260.146 157.49C259.739 157.686 260.943 164.613 260.943 164.613C260.943 164.613 258.146 158.461 257.756 158.653C255.222 159.901 253.028 161.036 251.128 162.147C250.809 162.333 252.426 171.17 252.426 171.17C252.426 171.17 249.571 163.093 249.272 163.288C248.363 163.878 247.533 164.47 246.777 165.077C246.627 165.198 251.008 179.092 251.008 179.092C251.008 179.092 246.038 165.694 245.895 165.821C239.69 171.344 239.034 178.493 239.196 196.681C253.397 183.045 265.549 168.791 268.638 153.42Z" fill="black"/>
<path d="M98.3341 40.7682C101.127 42.1148 103.625 43.2968 105.86 44.3748C106.22 44.5484 105.153 50.6866 105.153 50.6866C105.153 50.6866 107.632 45.2355 107.977 45.4056C110.222 46.5111 112.167 47.5171 113.851 48.5017C114.133 48.6669 112.7 56.497 112.7 56.497C112.7 56.497 115.23 49.3404 115.496 49.5127C116.301 50.0355 117.036 50.5599 117.706 51.0978C117.839 51.2049 113.957 63.517 113.957 63.517C113.957 63.517 118.361 51.6447 118.488 51.7578C123.986 56.6515 124.567 62.9863 124.424 79.1037C124.424 79.1037 108.652 75.9469 100.513 68.2994C100.416 68.2076 111.346 66.1738 111.346 66.1738C111.346 66.1738 100.005 67.8064 99.898 67.6974C98.3869 66.1564 97.1907 64.4424 96.4846 62.5454C95.7177 60.485 95.4676 58.0442 95.5191 55.5548C95.524 55.3182 104.21 58.7997 104.21 58.7997C104.21 58.7997 95.5645 54.3729 95.5794 54.1373C96.0061 47.4005 98.3341 40.7682 98.3341 40.7682Z" fill="#F84C6B"/>
<path opacity="0.1" d="M98.3341 40.7682C101.127 42.1148 103.625 43.2968 105.86 44.3748C106.22 44.5484 105.153 50.6866 105.153 50.6866C105.153 50.6866 107.632 45.2355 107.977 45.4056C110.222 46.5111 112.167 47.5171 113.851 48.5017C114.133 48.6669 112.7 56.497 112.7 56.497C112.7 56.497 115.23 49.3404 115.496 49.5127C116.301 50.0355 117.036 50.5599 117.706 51.0978C117.839 51.2049 113.957 63.517 113.957 63.517C113.957 63.517 118.361 51.6447 118.488 51.7578C123.986 56.6515 124.567 62.9863 124.424 79.1037C111.839 67.0205 101.072 54.3896 98.3341 40.7682Z" fill="black"/>
<path opacity="0.3" d="M207 138.5V133.5C207 130.848 205.946 128.304 204.071 126.429C202.196 124.554 199.652 123.5 197 123.5H177C174.348 123.5 171.804 124.554 169.929 126.429C168.054 128.304 167 130.848 167 133.5V138.5" stroke="#123258" stroke-width="4" stroke-linecap="round" stroke-linejoin="round"/>
<path opacity="0.3" d="M187 113.5C192.523 113.5 197 109.023 197 103.5C197 97.9772 192.523 93.5 187 93.5C181.477 93.5 177 97.9772 177 103.5C177 109.023 181.477 113.5 187 113.5Z" stroke="#123258" stroke-width="4" stroke-linecap="round" stroke-linejoin="round"/>
<path d="M204 135.5V130.5C204 127.848 202.946 125.304 201.071 123.429C199.196 121.554 196.652 120.5 194 120.5H174C171.348 120.5 168.804 121.554 166.929 123.429C165.054 125.304 164 127.848 164 130.5V135.5" stroke="#123258" stroke-width="4" stroke-linecap="round" stroke-linejoin="round"/>
<path d="M184 110.5C189.523 110.5 194 106.023 194 100.5C194 94.9772 189.523 90.5 184 90.5C178.477 90.5 174 94.9772 174 100.5C174 106.023 178.477 110.5 184 110.5Z" stroke="#123258" stroke-width="4" stroke-linecap="round" stroke-linejoin="round"/>
</svg>
