<svg width="189" height="153" viewBox="0 0 189 153" fill="none" xmlns="http://www.w3.org/2000/svg">
<path d="M21.3179 67.685C17.3691 62.1399 16.254 57.3373 17.5833 51.6485C18.4577 47.9058 20.9576 44.6647 24.2701 42.9925C27.9128 41.1526 32.0153 41.3202 35.8193 43.4625L34.776 45.7815C31.6134 44 28.224 43.8503 25.234 45.3593C22.5565 46.7067 20.5405 49.3056 19.8412 52.3012C18.7072 57.1816 19.6598 61.1683 23.1449 66.0652L21.3179 67.685Z" fill="#FF5C5C"/>
<path d="M41.6051 88.957L40.3388 87.8776C30.0283 79.1347 24.1214 73.2887 20.5896 68.3274L23.8656 65.4111C26.9828 69.7885 32.4802 75.2663 41.6014 83.0675C50.7263 75.2723 56.2249 69.7945 59.3459 65.4216L62.6219 68.3379C59.0939 73.2947 53.1833 79.1407 42.8727 87.8776L41.6051 88.957Z" fill="#FF5C5C"/>
<path d="M61.8925 67.6851L60.0705 66.0653C63.557 61.1684 64.512 57.1877 63.378 52.3013C62.6787 49.3072 60.6615 46.7113 57.984 45.3594C54.994 43.8504 51.6059 44.0001 48.442 45.7816L47.3937 43.4582C51.1989 41.3159 55.3002 41.1482 58.9428 42.9881C62.2554 44.6603 64.7552 47.8969 65.6309 51.6441C66.959 57.3374 65.8413 62.14 61.8925 67.6851Z" fill="#FF5C5C"/>
<path d="M35.9944 48.2579C37.5316 48.2579 38.7777 46.8657 38.7777 45.1485C38.7777 43.4312 37.5316 42.0391 35.9944 42.0391C34.4572 42.0391 33.2111 43.4312 33.2111 45.1485C33.2111 46.8657 34.4572 48.2579 35.9944 48.2579Z" fill="#FF5C5C"/>
<path d="M47.2173 48.2579C48.7545 48.2579 50.0006 46.8657 50.0006 45.1485C50.0006 43.4312 48.7545 42.0391 47.2173 42.0391C45.6801 42.0391 44.434 43.4312 44.434 45.1485C44.434 46.8657 45.6801 48.2579 47.2173 48.2579Z" fill="#FF5C5C"/>
<path d="M48.5654 111.28C47.6553 111.278 46.7584 111.021 45.9471 110.531C42.5879 108.537 40.4913 102.953 40.4459 95.9411C39.8747 95.8413 39.2758 95.751 38.6492 95.6701C23.5456 93.7404 20.1839 88.3031 16.9318 83.0424L16.8398 82.8927L18.755 81.4136L18.847 81.5633C21.9403 86.565 24.861 91.2942 38.9138 93.0907C39.4421 93.1585 39.9524 93.2334 40.4447 93.3152V86.017H42.7732V93.7718C51.389 95.8019 53.6659 100.14 54.2392 102.754C54.9296 105.922 53.6583 108.807 52.0442 110.018C50.9115 110.855 49.7309 111.28 48.5654 111.28ZM42.7782 96.4366C42.9105 102.166 44.5548 106.75 47.042 108.232C48.2214 108.936 49.465 108.807 50.7364 107.852C51.6574 107.16 52.4021 105.353 51.9686 103.361C51.6221 101.775 50.0219 98.2765 42.7782 96.4366Z" fill="#FF5C5C"/>
<path d="M15.9919 84.8279C13.356 84.8279 11.214 82.4311 11.214 79.4939C11.214 76.5567 13.356 74.1509 16.002 74.1509C18.648 74.1509 20.79 76.5462 20.79 79.4939C20.79 82.4416 18.6278 84.8279 15.9919 84.8279ZM15.9919 76.7438C14.6399 76.7438 13.5387 77.9729 13.5387 79.4849C13.5387 80.997 14.6399 82.2245 15.9919 82.2245C17.3439 82.2245 18.4451 80.991 18.4451 79.4939C18.4451 77.9968 17.3439 76.7453 15.9919 76.7453V76.7438Z" fill="#FF5C5C"/>
<path d="M52.6944 59.8465L52.4777 58.8555C51.8111 56.3374 49.2974 49.915 41.0356 50.0722C41.0356 50.0722 30.2072 50.156 29.9564 63.2344C29.9564 63.2344 29.3894 74.1016 39.6232 75.8831L39.637 75.5328C39.637 75.5328 36.7012 74.6764 34.689 70.5625C34.7268 70.6373 34.7646 70.7122 34.8024 70.7796C34.0779 69.3124 33.5222 67.5264 33.2135 65.4156C33.2646 65.9519 33.3437 66.4839 33.4504 67.0085C33.1499 65.6869 32.9624 64.3327 32.891 62.9664C32.891 62.9664 32.9817 50.7563 41.2964 50.2683C41.2964 50.2683 48.8426 49.8835 49.7888 62.2208C49.7888 62.2208 50.7099 69.9876 45.4885 74.4728C44.9842 74.9288 44.4166 75.2764 43.8114 75.4998L43.7988 75.8367C43.7988 75.8367 54.8188 73.7123 52.6944 59.8465Z" fill="#292685"/>
<path d="M43.9009 62.8527C43.8881 62.8447 43.8737 62.8411 43.8593 62.8423C43.7726 62.8478 43.6873 62.8711 43.6073 62.9111L43.4233 62.995C43.3881 64.1507 43.1587 65.1582 42.5413 65.787C41.9113 66.4397 41.1919 66.6852 40.1146 66.6852C39.2805 66.6852 38.8697 66.4217 38.7286 66.1837C38.6442 66.046 38.6227 65.5445 38.6114 65.2316C38.6013 64.992 38.5912 64.0339 38.5912 62.6985V61.1251C38.5912 60.1326 38.5912 59.0427 38.6013 58.6175C38.5938 58.5647 38.6023 58.5104 38.6254 58.4643C38.6485 58.4182 38.6846 58.3834 38.7273 58.366C38.9514 58.3028 39.1812 58.2732 39.4115 58.2777C40.2355 58.2777 41.4376 58.4274 42.4078 59.5307C42.9693 60.2054 43.3166 61.0905 43.3906 62.0353L44.7678 61.3796C44.6446 60.5318 44.3122 59.7465 43.8127 59.1235C42.6636 57.6938 40.9008 57.6938 39.5829 57.6938C38.9529 57.6938 38.2838 57.7328 37.9575 57.7328C37.6626 57.7328 36.9973 57.6938 36.4379 57.6938C36.2804 57.6938 36.2061 57.7193 36.2061 57.8076C36.2061 57.896 36.2703 57.9214 36.385 57.9214C36.5234 57.9182 36.6618 57.9307 36.7983 57.9588C37.146 58.0472 37.2304 58.2478 37.2506 58.6729C37.272 59.0741 37.272 59.4215 37.272 61.3302V63.5354C37.272 64.6911 37.272 65.6807 37.2191 66.2062C37.1775 66.5699 37.1246 66.8454 36.9129 66.8963C36.7889 66.9301 36.6621 66.9472 36.5349 66.9472C36.4089 66.9472 36.3648 66.9846 36.3648 67.0475C36.3648 67.1104 36.4392 67.1718 36.5765 67.1718C36.7882 67.1718 37.0616 67.1463 37.3035 67.1463C37.5454 67.1463 37.7911 67.1328 37.9058 67.1328C38.1704 67.1328 38.5358 67.1718 38.9403 67.2092C39.3447 67.2466 39.7744 67.284 40.1536 67.284C42.1054 67.284 43.2028 66.3948 43.6879 65.8064C43.783 65.6905 43.8722 65.5681 43.9551 65.4397V64.0324C43.9651 63.6673 43.9563 63.3019 43.9286 62.9381C43.9257 62.9073 43.9162 62.8779 43.9009 62.8527Z" fill="#FF5C5C"/>
<path d="M45.0892 61.6894V62.9499C45.4848 62.1096 45.8901 61.6894 46.3051 61.6894C46.4778 61.6825 46.646 61.7561 46.7738 61.8945C46.8315 61.9532 46.8778 62.026 46.9098 62.1079C46.9417 62.1898 46.9585 62.2788 46.959 62.3691C46.9604 62.4436 46.9494 62.5177 46.9264 62.5871C46.9035 62.6565 46.8692 62.7198 46.8254 62.7733C46.7847 62.8256 46.7351 62.8673 46.68 62.8957C46.6249 62.924 46.5654 62.9384 46.5054 62.938C46.3549 62.923 46.213 62.8487 46.1022 62.7269C46.0106 62.6202 45.8951 62.547 45.7696 62.5158C45.6917 62.5247 45.6196 62.5686 45.568 62.6385C45.3697 62.8793 45.2077 63.1589 45.0892 63.4649V66.1507C45.0785 66.3909 45.1121 66.631 45.1874 66.8543C45.2394 66.974 45.3225 67.0706 45.4243 67.1297C45.5773 67.2132 45.7451 67.2512 45.9132 67.2405V67.4606H43.4978V67.2405C43.6833 67.2552 43.8687 67.2085 44.0333 67.1058C44.1238 67.0322 44.1881 66.9212 44.2135 66.7944C44.2386 66.5963 44.2475 66.3957 44.2399 66.1956V64.0278C44.2501 63.6386 44.2387 63.249 44.2059 62.8616C44.1925 62.7559 44.1479 62.6592 44.0799 62.5891C44.0157 62.5307 43.9364 62.5005 43.8556 62.5038C43.7318 62.5077 43.6096 62.5386 43.4953 62.5951L43.4436 62.3751L44.8699 61.6894H45.0892Z" fill="#FF5C5C"/>
<path d="M46.9048 66.2736C46.9805 66.2715 47.0558 66.2881 47.1259 66.3224C47.196 66.3567 47.2593 66.4078 47.3118 66.4727C47.3651 66.5355 47.4072 66.6105 47.4355 66.693C47.4639 66.7756 47.4779 66.8641 47.4768 66.9533C47.4764 67.0649 47.4529 67.1747 47.4083 67.273C47.3637 67.3713 47.2994 67.455 47.2211 67.5167C47.1428 67.5784 47.0529 67.6163 46.9593 67.6269C46.8658 67.6376 46.7715 67.6207 46.6847 67.5777C46.598 67.5348 46.5215 67.4671 46.462 67.3807C46.4025 67.2942 46.3619 67.1917 46.3436 67.0822C46.3254 66.9727 46.3302 66.8595 46.3575 66.7527C46.3848 66.6459 46.4339 66.5487 46.5003 66.4697C46.5532 66.4064 46.6163 66.3564 46.6858 66.3227C46.7552 66.289 46.8297 66.2723 46.9048 66.2736Z" fill="#FF5C5C"/>
</svg>
