<svg width="9" height="14" viewBox="0 0 9 14" fill="none" xmlns="http://www.w3.org/2000/svg">
<path d="M7.87452 0.00291293L6.05904 0C4.0194 0 2.7013 1.35233 2.7013 3.44542V5.03399H0.875907C0.718171 5.03399 0.590439 5.16187 0.590439 5.3196V7.62126C0.590439 7.77899 0.718317 7.90672 0.875907 7.90672H2.7013V13.7145C2.7013 13.8723 2.82903 14 2.98676 14H5.36838C5.52612 14 5.65385 13.8721 5.65385 13.7145V7.90672H7.78816C7.94589 7.90672 8.07362 7.77899 8.07362 7.62126L8.0745 5.3196C8.0745 5.24386 8.04435 5.17133 7.9909 5.11773C7.93744 5.06414 7.86462 5.03399 7.78888 5.03399H5.65385V3.68734C5.65385 3.04008 5.80809 2.71151 6.65124 2.71151L7.87423 2.71107C8.03182 2.71107 8.15955 2.58319 8.15955 2.4256V0.288381C8.15955 0.130936 8.03197 0.00320423 7.87452 0.00291293Z" fill="#123258"/>
</svg>
