<svg width="375" height="214" viewBox="0 0 375 214" fill="none" xmlns="http://www.w3.org/2000/svg">
<path d="M127.062 125.459C132.06 148.271 119.595 167.414 138.747 180.753C154.149 191.481 199.562 190.456 219.479 188.462C233.275 187.081 236.973 164.965 244.177 153.106C253.823 137.227 261.114 131.812 261.439 113.23C261.843 90.0744 251.646 77.3379 235.944 60.3286C225.32 48.8191 233.123 38.8551 218.151 34.2766C198.413 28.2406 185.031 28.2078 165.303 34.2766C147.291 39.8176 137.052 46.1085 124.671 60.3286C105.708 82.1092 120.878 97.238 127.062 125.459Z" fill="#F6F8FB"/>
<path d="M268.638 153.42C265.486 154.939 262.667 156.273 260.145 157.49C259.739 157.686 260.943 164.613 260.943 164.613C260.943 164.613 258.146 158.461 257.756 158.653C255.222 159.901 253.027 161.036 251.128 162.147C250.809 162.333 252.426 171.17 252.426 171.17C252.426 171.17 249.571 163.093 249.271 163.288C248.363 163.878 247.533 164.47 246.777 165.077C246.627 165.198 251.008 179.092 251.008 179.092C251.008 179.092 246.038 165.694 245.895 165.821C239.69 171.344 239.034 178.493 239.196 196.681C239.196 196.681 256.995 193.119 266.179 184.489C266.289 184.385 253.954 182.09 253.954 182.09C253.954 182.09 266.752 183.932 266.873 183.809C268.579 182.07 269.928 180.136 270.725 177.995C271.591 175.67 271.873 172.916 271.815 170.106C271.809 169.839 262.007 173.768 262.007 173.768C262.007 173.768 271.764 168.773 271.747 168.507C271.265 160.904 268.638 153.42 268.638 153.42Z" fill="#18DF80"/>
<path opacity="0.1" d="M268.638 153.42C265.486 154.939 262.667 156.273 260.145 157.49C259.739 157.686 260.943 164.613 260.943 164.613C260.943 164.613 258.146 158.461 257.756 158.653C255.222 159.901 253.027 161.036 251.128 162.147C250.809 162.333 252.426 171.17 252.426 171.17C252.426 171.17 249.571 163.093 249.271 163.288C248.363 163.878 247.533 164.47 246.777 165.077C246.627 165.198 251.008 179.092 251.008 179.092C251.008 179.092 246.038 165.694 245.895 165.821C239.69 171.344 239.034 178.493 239.196 196.681C253.397 183.045 265.549 168.791 268.638 153.42Z" fill="black"/>
<path d="M98.3341 40.7682C101.127 42.1148 103.625 43.2968 105.86 44.3748C106.22 44.5484 105.153 50.6866 105.153 50.6866C105.153 50.6866 107.632 45.2355 107.977 45.4056C110.222 46.5111 112.167 47.5171 113.851 48.5017C114.133 48.6669 112.7 56.497 112.7 56.497C112.7 56.497 115.23 49.3404 115.496 49.5127C116.301 50.0355 117.036 50.5599 117.706 51.0978C117.839 51.2049 113.957 63.517 113.957 63.517C113.957 63.517 118.361 51.6447 118.488 51.7578C123.986 56.6515 124.567 62.9863 124.424 79.1037C124.424 79.1037 108.652 75.9469 100.513 68.2994C100.416 68.2076 111.346 66.1738 111.346 66.1738C111.346 66.1738 100.005 67.8064 99.898 67.6974C98.3869 66.1564 97.1907 64.4424 96.4846 62.5454C95.7177 60.485 95.4676 58.0442 95.5191 55.5548C95.524 55.3182 104.21 58.7997 104.21 58.7997C104.21 58.7997 95.5645 54.3729 95.5794 54.1373C96.0061 47.4005 98.3341 40.7682 98.3341 40.7682Z" fill="#F84C6B"/>
<path opacity="0.1" d="M98.3341 40.7682C101.127 42.1148 103.625 43.2968 105.86 44.3748C106.22 44.5484 105.153 50.6866 105.153 50.6866C105.153 50.6866 107.632 45.2355 107.977 45.4056C110.222 46.5111 112.167 47.5171 113.851 48.5017C114.133 48.6669 112.7 56.497 112.7 56.497C112.7 56.497 115.23 49.3404 115.496 49.5127C116.301 50.0355 117.036 50.5599 117.706 51.0978C117.839 51.2049 113.957 63.517 113.957 63.517C113.957 63.517 118.361 51.6447 118.488 51.7578C123.986 56.6515 124.567 62.9863 124.424 79.1037C111.839 67.0205 101.072 54.3896 98.3341 40.7682Z" fill="black"/>
<path d="M205.5 82L200.5 87M181.475 106.025L191.75 95.75M191.75 95.75L199.25 103.25L208 94.5L200.5 87M191.75 95.75L200.5 87M181.475 106.025C182.766 107.299 183.792 108.815 184.494 110.487C185.197 112.159 185.561 113.953 185.568 115.767C185.574 117.58 185.221 119.377 184.53 121.053C183.839 122.73 182.823 124.253 181.54 125.535C180.258 126.818 178.735 127.834 177.058 128.525C175.382 129.216 173.585 129.569 171.772 129.563C169.958 129.556 168.164 129.192 166.492 128.489C164.82 127.787 163.304 126.761 162.03 125.47C159.525 122.877 158.139 119.403 158.171 115.798C158.202 112.193 159.648 108.744 162.197 106.195C164.747 103.646 168.195 102.2 171.801 102.168C175.406 102.137 178.879 103.523 181.472 106.028L181.475 106.025Z" stroke="#123258" stroke-width="4" stroke-linecap="round" stroke-linejoin="round"/>
<path opacity="0.3" d="M208.5 85L203.5 90M184.475 109.025L194.75 98.75M194.75 98.75L202.25 106.25L211 97.5L203.5 90M194.75 98.75L203.5 90M184.475 109.025C185.766 110.299 186.792 111.815 187.494 113.487C188.197 115.159 188.561 116.953 188.568 118.767C188.574 120.58 188.221 122.377 187.53 124.053C186.839 125.73 185.823 127.253 184.54 128.535C183.258 129.818 181.735 130.834 180.058 131.525C178.382 132.216 176.585 132.569 174.772 132.563C172.958 132.556 171.164 132.192 169.492 131.489C167.82 130.787 166.304 129.761 165.03 128.47C162.525 125.877 161.139 122.403 161.171 118.798C161.202 115.193 162.648 111.744 165.197 109.195C167.747 106.646 171.195 105.2 174.801 105.168C178.406 105.137 181.879 106.523 184.472 109.028L184.475 109.025Z" stroke="#123258" stroke-width="4" stroke-linecap="round" stroke-linejoin="round"/>
</svg>
