<svg width="375" height="321" viewBox="0 0 375 321" fill="none" xmlns="http://www.w3.org/2000/svg">
<g clip-path="url(#clip0_578_2496)">
<path d="M78.4998 191.5C87.9113 234.407 64.4428 270.41 100.5 295.5C129.5 315.678 215 313.75 252.5 310C278.475 307.402 285.437 265.804 299 243.5C317.161 213.634 330.889 203.448 331.5 168.5C332.261 124.947 313.062 100.992 283.5 68.9996C263.496 47.3518 278.189 28.6112 250 19.9996C212.838 8.64687 187.643 8.5852 150.5 19.9996C116.587 30.4214 97.3097 42.2536 73.9999 68.9996C38.297 109.966 66.8573 138.421 78.4998 191.5Z" fill="#F6F8FB"/>
<path opacity="0.2" d="M43.9153 176.237C31.2151 174.556 34.2795 164.352 26.8984 156.246C19.5173 148.14 52.3222 145.847 65.0515 159.067C77.7808 172.286 69.548 156.949 67.5674 151.734C65.5868 146.52 91.0001 159.557 92.0375 171.66C93.0748 183.763 104.033 182.879 102.023 166.126C100.013 149.373 116.906 179.757 119.617 194.784C122.329 209.811 126.215 195.299 125.469 183.624C124.722 171.948 139.323 202.638 132.754 213.661C126.185 224.684 138.373 225.151 145.37 213.838C152.366 202.525 148.407 225.207 136.64 240.074C124.873 254.94 142.122 252.281 149.53 238.814C156.937 225.347 160.486 278.854 132.005 283.833C131.206 283.972 123.773 260.807 122.99 260.905C121.992 261.03 127.647 284.405 126.676 284.466C101.245 286.061 85.4315 266.494 96.2185 264.723C107.741 262.83 109.382 262.027 103.078 254.127C96.7737 246.227 75.2171 248.063 87.3563 242.941C99.4954 237.818 105.956 239.051 96.2161 231.611C86.4757 224.171 58.4221 228.859 77.2801 221.671C96.1382 214.483 89.8502 208.446 79.5418 209.826C69.2334 211.206 48.3711 209.006 58.8077 207.355C77.9887 204.321 79.5359 184.526 69.2241 193.718C58.9122 202.911 24.6265 191.528 39.4316 188.03C54.2367 184.532 56.6156 177.918 43.9153 176.237Z" fill="#208153"/>
<path d="M45.2752 169.115C32.575 167.434 35.6393 157.23 28.2582 149.124C20.8772 141.018 53.6821 138.725 66.4114 151.945C79.1407 165.164 70.9079 149.827 68.9273 144.612C66.9467 139.398 92.36 152.435 93.3973 164.538C94.4347 176.641 105.393 175.757 103.383 159.004C101.373 142.251 118.266 172.634 120.977 187.661C123.688 202.688 127.575 188.177 126.828 176.502C126.081 164.826 140.683 195.516 134.114 206.539C127.545 217.562 139.733 218.029 146.73 206.716C153.726 195.403 149.767 218.085 138 232.951C126.233 247.818 143.482 245.159 150.89 231.692C158.297 218.225 161.846 271.732 133.365 276.711C132.566 276.85 125.133 253.685 124.35 253.783C123.351 253.908 129.007 277.283 128.036 277.344C102.605 278.939 86.7913 259.372 97.5783 257.6C109.101 255.708 110.742 254.905 104.438 247.005C98.1336 239.105 76.577 240.941 88.7161 235.819C100.855 230.696 107.316 231.929 97.5759 224.489C87.8355 217.049 59.7819 221.737 78.64 214.549C97.498 207.361 91.2101 201.324 80.9017 202.704C70.5933 204.084 49.731 201.884 60.1675 200.233C79.3485 197.199 80.8958 177.404 70.5839 186.596C60.2721 195.788 25.9863 184.406 40.7914 180.908C55.5965 177.41 57.9754 170.796 45.2752 169.115Z" fill="#29CB7E"/>
<path opacity="0.1" d="M150.89 231.692C158.297 218.225 161.846 271.732 133.365 276.711C133.365 276.711 119.379 218.917 95 192C74.2041 169.038 28.2582 149.124 28.2582 149.124C28.2582 149.124 53.682 138.725 66.4113 151.945C79.1406 165.164 70.9078 149.827 68.9272 144.612C66.9466 139.398 92.3599 152.435 93.3972 164.538C94.4346 176.641 105.393 175.757 103.383 159.004C101.373 142.251 118.266 172.635 120.977 187.661C123.688 202.688 127.575 188.177 126.828 176.502C126.081 164.826 140.683 195.516 134.114 206.539C127.545 217.562 139.733 218.029 146.729 206.716C153.726 195.403 149.767 218.085 138 232.952C126.232 247.818 143.482 245.159 150.89 231.692Z" fill="black"/>
<path opacity="0.2" d="M308.302 185.125C318.01 182.252 314.363 174.663 319.128 167.427C323.894 160.192 298.002 162.435 289.691 174.32C281.379 186.205 285.92 173.22 286.825 168.906C287.73 164.591 269.494 177.893 270.173 187.469C270.851 197.045 262.188 197.703 261.697 184.377C261.206 171.051 251.754 196.848 251.486 208.912C251.217 220.976 246.398 210.126 245.546 200.919C244.693 191.713 237.068 217.467 243.551 225.264C250.035 233.062 240.578 234.925 233.725 226.953C226.872 218.982 232.751 236.202 243.765 246.361C254.78 256.52 240.987 256.565 233.548 246.963C226.11 237.361 229.918 279.567 252.764 279.952C253.405 279.962 256.359 260.965 256.983 260.945C257.778 260.92 256.237 279.863 257.002 279.791C277.052 277.909 286.99 260.69 278.352 260.633C269.124 260.572 267.744 260.148 271.694 253.205C275.644 246.263 292.698 245.046 282.592 242.539C272.485 240.033 267.593 241.79 274.282 234.784C280.971 227.778 303.448 227.989 287.842 224.696C272.237 221.403 276.403 215.917 284.62 215.727C292.837 215.537 308.853 211.254 300.503 211.249C285.156 211.239 281.514 195.976 290.694 201.884C299.874 207.792 325.24 194.69 313.252 193.78C301.265 192.87 298.594 187.999 308.302 185.125Z" fill="#208153"/>
<path d="M305.873 179.888C315.581 177.014 311.934 169.425 316.699 162.19C321.465 154.954 295.574 157.198 287.262 169.083C278.95 180.968 283.491 167.983 284.396 163.668C285.301 159.354 267.065 172.656 267.744 182.232C268.422 191.808 259.759 192.465 259.268 179.14C258.777 165.814 249.326 191.61 249.057 203.675C248.788 215.739 243.969 204.889 243.117 195.682C242.264 186.476 234.639 212.23 241.122 220.027C247.606 227.824 238.149 229.687 231.296 221.716C224.443 213.745 230.322 230.965 241.337 241.124C252.351 251.282 238.558 251.328 231.119 241.725C223.681 232.123 227.489 274.33 250.335 274.714C250.977 274.725 253.93 255.727 254.554 255.708C255.349 255.682 253.808 274.625 254.574 274.554C274.623 272.672 284.561 255.452 275.923 255.396C266.695 255.335 265.315 254.91 269.265 247.968C273.215 241.025 290.269 239.808 280.163 237.302C270.056 234.795 265.164 236.553 271.853 229.547C278.542 222.541 301.019 222.751 285.413 219.459C269.808 216.166 273.974 210.68 282.191 210.49C290.408 210.3 306.424 206.017 298.074 206.011C282.727 206.001 279.085 190.739 288.265 196.647C297.446 202.555 322.811 189.453 310.823 188.543C298.836 187.633 296.165 182.762 305.873 179.888Z" fill="#F5B715"/>
<circle cx="269" cy="168" r="2" fill="#DDA513"/>
<circle cx="288" cy="156" r="2" fill="#DDA513"/>
<circle cx="311" cy="152" r="2" fill="#DDA513"/>
<path opacity="0.1" d="M305.78 179.629C315.488 176.755 311.839 169.162 316.605 161.927C321.37 154.692 303.216 169.539 292.5 174.5C253.357 192.623 254.482 274.298 254.482 274.298C254.482 274.298 284.49 255.255 275.851 255.198C266.624 255.137 265.241 254.704 269.191 247.762C273.141 240.819 290.23 239.7 280.124 237.193C270.017 234.687 265.077 236.31 271.766 229.304C278.455 222.298 300.986 222.659 285.38 219.366C269.775 216.073 273.867 210.381 282.084 210.19C290.301 210 306.348 205.807 297.998 205.801C282.651 205.791 279.053 190.651 288.233 196.558C297.414 202.466 322.779 189.365 310.792 188.454C298.804 187.544 296.072 182.503 305.78 179.629Z" fill="black"/>
<path d="M129.641 305.668C129.641 305.668 117.934 276.377 103.505 263.396C85.1068 246.846 44.3485 240.682 44.3485 240.682" stroke="#34B6FF"/>
<ellipse cx="1.82716" cy="4.75061" rx="1.82716" ry="4.75061" transform="matrix(0.525885 0.850555 0.850555 -0.525885 43.6652 245.831)" fill="#34B6FF"/>
<ellipse cx="1.82716" cy="4.75061" rx="1.82716" ry="4.75061" transform="matrix(0.525885 0.850555 0.850555 -0.525885 54.1095 248.825)" fill="#34B6FF"/>
<ellipse cx="1.82716" cy="4.75061" rx="1.82716" ry="4.75061" transform="matrix(0.62927 0.777187 0.777187 -0.62927 63.7074 252.208)" fill="#399CD3"/>
<ellipse cx="1.82716" cy="4.75061" rx="1.82716" ry="4.75061" transform="matrix(0.525885 0.850555 0.850555 -0.525885 72.986 254.34)" fill="#34B6FF"/>
<ellipse cx="2.19259" cy="5.48148" rx="2.19259" ry="5.48148" transform="matrix(0.525885 0.850555 0.850555 -0.525885 80.9437 258.871)" fill="#123258"/>
<ellipse cx="2.19259" cy="5.48148" rx="2.19259" ry="5.48148" transform="matrix(0.161824 0.98682 0.98682 -0.161824 91.8402 260.808)" fill="#399CD3"/>
<ellipse cx="2.69954" cy="6.74885" rx="2.69954" ry="6.74885" transform="matrix(0.161824 0.98682 0.98682 -0.161824 100.057 271.973)" fill="#123258"/>
<ellipse cx="2.69954" cy="6.74885" rx="2.69954" ry="6.74885" transform="matrix(0.161824 0.98682 0.98682 -0.161824 106.682 279.907)" fill="#399CD3"/>
<ellipse cx="2.69954" cy="4.73345" rx="2.69954" ry="4.73345" transform="matrix(0.161824 0.98682 0.98682 -0.161824 113.169 288.874)" fill="#123258"/>
<ellipse cx="2.14271" cy="5.57105" rx="2.14271" ry="5.57105" transform="matrix(0.983314 -0.181919 -0.181919 -0.983314 85.8077 253.7)" fill="#399CD3"/>
<ellipse cx="2.14271" cy="5.57105" rx="2.14271" ry="5.57105" transform="matrix(0.983314 -0.181919 -0.181919 -0.983314 97.806 259.796)" fill="#123258"/>
<ellipse cx="2.73301" cy="7.10581" rx="2.73301" ry="7.10581" transform="matrix(0.983314 -0.181919 -0.181919 -0.983314 108.789 271.657)" fill="#399CD3"/>
<ellipse cx="2.73301" cy="7.10581" rx="2.73301" ry="7.10581" transform="matrix(0.989515 0.144429 0.144429 -0.989515 114.269 279.417)" fill="#123258"/>
<ellipse cx="2.73301" cy="7.10581" rx="2.73301" ry="7.10581" transform="matrix(0.794494 0.607272 0.607272 -0.794494 119.282 287.523)" fill="#399CD3"/>
<ellipse cx="1.82716" cy="4.75061" rx="1.82716" ry="4.75061" transform="matrix(0.927479 -0.373874 -0.373874 -0.927479 76.3275 250.109)" fill="#34B6FF"/>
<ellipse cx="1.82716" cy="4.75061" rx="1.82716" ry="4.75061" transform="matrix(0.97691 -0.213654 -0.213654 -0.97691 65.6537 246.673)" fill="#34B6FF"/>
<ellipse cx="1.82716" cy="4.75061" rx="1.82716" ry="4.75061" transform="matrix(0.960537 -0.278154 -0.278154 -0.960537 54.924 244.103)" fill="#399CD3"/>
<ellipse cx="1.82716" cy="4.75061" rx="1.82716" ry="4.75061" transform="matrix(0.0283735 0.999597 0.999597 -0.0283735 35.2867 239.047)" fill="#34B6FF"/>
<path d="M308.739 242C302.151 243.279 296.271 244.375 291 245.4C290.151 245.565 289 259 289 259C289 259 286.817 246.224 286 246.39C280.691 247.466 276.066 248.499 272 249.632C271.318 249.822 270 267 270 267C270 267 268.65 250.627 268 250.841C266.026 251.491 264.199 252.184 262.5 252.94C262.162 253.091 263.5 281 263.5 281C263.5 281 260.828 253.724 260.5 253.89C246.293 261.101 241.586 274.04 233 307.852C233 307.852 267.751 309.94 289 298.421C289.255 298.283 267.5 288 267.5 288C267.5 288 290.336 297.669 290.62 297.5C294.632 295.108 298.081 292.18 300.604 288.599C303.345 284.709 305.215 279.739 306.479 274.5C306.599 274.002 286.5 276.5 286.5 276.5C286.5 276.5 307.036 272.001 307.134 271.5C309.955 257.165 308.739 242 308.739 242Z" fill="#F84C6B"/>
<path opacity="0.1" d="M308.739 242C302.151 243.279 296.271 244.375 291 245.4C290.151 245.565 289 259 289 259C289 259 286.817 246.224 286 246.39C280.691 247.466 276.066 248.499 272 249.632C271.318 249.822 270 267 270 267C270 267 268.65 250.627 268 250.841C266.026 251.491 264.199 252.184 262.5 252.94C262.162 253.091 263.5 281 263.5 281C263.5 281 260.828 253.724 260.5 253.89C246.293 261.101 241.586 274.04 233 307.852C266 289.5 295.5 269 308.739 242Z" fill="black"/>
<path d="M186.875 320.7C227.689 320.7 260.776 316.818 260.776 312.029C260.776 307.24 227.689 303.358 186.875 303.358C146.061 303.358 112.974 307.24 112.974 312.029C112.974 316.818 146.061 320.7 186.875 320.7Z" fill="#D3E3F1"/>
<path d="M252.423 299.136C252.423 305.394 247.305 310.446 241.134 310.446H132.465C126.294 310.446 121.177 305.319 121.177 299.136V66.7571C121.177 60.499 126.294 55.4473 132.465 55.4473H241.134C247.38 55.4473 252.423 60.5744 252.423 66.7571V299.136Z" fill="#123258"/>
<path d="M248.961 72.4873H125.166V281.568H248.961V72.4873Z" fill="#4C6780"/>
<path d="M172.05 78.1416C180.779 73.1653 196.357 72.8637 203.356 78.8202" stroke="#123258" stroke-width="2" stroke-miterlimit="10"/>
<path d="M167.534 80.4037L175.361 76.6338L193.573 67.5859L201.475 77.991L209.677 81.4593L221.493 85.0031L217.353 268.071L166.029 268.901L158.127 100.158L167.534 80.4037Z" fill="#18DF80"/>
<rect x="152.563" y="237.233" width="74.6448" height="44.4853" fill="#3AB479"/>
<path opacity="0.3" d="M167.534 80.7812C166.104 109.433 189.133 142.834 189.434 163.946C189.434 163.946 196.809 135.973 199.969 126.096C203.13 116.143 210.881 88.2457 209.677 81.5352L216.45 157.688L193.497 172.089L168.814 160.327C168.814 160.327 161.74 119.762 161.74 118.556C162.342 89.9799 167.534 80.7812 167.534 80.7812Z" fill="#9B9B9B"/>
<path d="M208.624 102.571C204.259 127.905 189.735 161.457 189.659 165.604C189.659 165.893 194.135 236.758 196.171 281.718H244.334C243.315 270.042 239.683 229.3 239.027 213.784C237.597 180.307 239.253 143.814 238.199 135.671L235.49 89.7531C223.299 84.7013 217.278 83.118 209.677 81.3838C209.753 86.8879 210.881 89.6023 208.624 102.571Z" fill="white"/>
<path d="M167.911 104.381C172.576 126.624 190.036 151.43 190.036 170.204C190.036 171.109 184.768 279.08 184.843 279.08C184.85 280.225 184.85 280.551 184.843 281.719H129.214C134.699 256.801 138.894 232.426 139.464 207.527C140.066 179.855 139.088 153.466 138.26 141.779L137.357 92.0157C144.657 87.4918 161.74 83.1941 167.534 80.4043C165.804 85.079 165.653 93.5237 167.911 104.381Z" fill="white"/>
<path d="M197.787 206.396C197.787 208.431 199.443 210.015 201.399 210.015C203.431 210.015 205.012 208.356 205.012 206.396C205.012 204.36 203.356 202.776 201.399 202.776C199.443 202.776 197.787 204.36 197.787 206.396Z" fill="#D3E3F1"/>
<path d="M199.668 236.856C199.668 238.892 201.324 240.476 203.281 240.476C205.313 240.476 206.893 238.817 206.893 236.856C206.893 234.821 205.237 233.237 203.281 233.237C201.324 233.237 199.668 234.821 199.668 236.856Z" fill="#D3E3F1"/>
<path d="M141.496 170.128C154.741 169.676 174.608 169.299 196.432 169.224C202.152 169.374 199.894 190.184 197.787 186.867C185.897 187.244 120.199 204.359 116.361 195.161C113.802 188.978 128.1 108.377 134.497 95.4835C138.109 89.904 141.646 87.7174 149.548 97.4439C155.493 104.758 151.43 121.647 149.925 126.246C147.516 133.56 141.496 170.128 141.496 170.128Z" fill="white"/>
<path d="M193.874 193.352C193.874 193.352 236.694 202.022 239.027 209.638L238.726 200.364L193.874 193.352Z" fill="#D3E3F1"/>
<path d="M139.539 196.82L177.694 190.185C177.694 190.185 139.615 199.082 139.389 206.395" fill="#D3E3F1"/>
<path d="M146.688 169.978L141.496 170.128L147.893 134.842C147.893 134.917 144.506 164.926 146.688 169.978Z" fill="#D3E3F1"/>
<path d="M158.203 131.147C158.203 133.937 155.945 136.124 153.236 136.124C150.451 136.124 148.269 133.862 148.269 131.147C148.269 128.357 150.527 126.171 153.236 126.171C155.945 126.171 158.203 128.433 158.203 131.147Z" fill="#D3E3F1"/>
<path d="M156.02 131.147C156.02 132.655 154.741 133.937 153.236 133.937C151.731 133.937 150.451 132.655 150.451 131.147C150.451 129.639 151.731 128.357 153.236 128.357C154.741 128.357 156.02 129.639 156.02 131.147Z" fill="#95B3C6"/>
<path d="M176.866 60.1973C177.919 64.5704 175.737 74.2214 175.361 76.6342C174.458 76.9358 169.641 79.3486 169.641 79.3486C169.641 84.5511 170.469 92.5434 175.662 98.3491C181.682 105.135 188.004 114.258 188.004 122.024L189.584 122.1C189.584 113.806 196.131 104.607 202.754 97.5197C208.699 91.1108 207.344 83.6463 207.344 80.4041L201.399 77.916C201.098 76.9358 199.367 68.7927 201.173 61.7052L176.866 60.1973Z" fill="#FFAF99"/>
<path d="M177.016 62.3086C177.016 62.3086 177.167 64.0428 176.866 66.9079C176.866 66.9079 183.564 76.4836 188.606 76.7098C193.648 76.936 200.496 68.6421 200.496 68.6421C200.496 68.6421 200.647 62.9118 200.948 60.499L177.016 62.3086Z" fill="#F29A86"/>
<path d="M212.387 31.4703C211.86 43.6849 201.55 53.1097 189.358 52.5819C177.167 52.0541 167.76 41.7245 168.287 29.5099C169.039 13.1483 179.199 5.68386 191.39 6.21166C203.582 6.81485 213.064 15.4857 212.387 31.4703Z" fill="#FFAF99"/>
<path d="M212.387 31.4701C211.86 43.3077 211.408 53.185 206.667 59.3677C203.808 63.1376 196.508 69.4711 191.315 70.9037C190.036 71.2807 186.424 70.9037 185.219 70.3759C180.253 68.3401 174.082 61.6297 171.598 57.7843C167.384 51.1492 167.835 41.272 168.362 29.5098" fill="#FFAF99"/>
<path d="M203.055 40.0655C202.98 42.1013 201.7 43.6092 200.195 43.6092C198.69 43.5338 197.561 41.8751 197.637 39.8393C197.712 37.8035 198.991 36.2202 200.496 36.2956C202.001 36.371 203.13 38.0297 203.055 40.0655Z" fill="#0E263F"/>
<path d="M182.51 39.2364C182.435 41.2722 181.155 42.7801 179.65 42.7801C178.145 42.7047 177.016 41.046 177.092 39.0102C177.167 36.9744 178.446 35.3911 179.951 35.4665C181.457 35.5419 182.585 37.2006 182.51 39.2364Z" fill="#0E263F"/>
<path d="M194.476 29.8118C194.476 29.8118 195.379 29.5102 196.809 29.4348C197.185 29.4348 197.561 29.3594 197.937 29.3594C198.314 29.3594 198.765 29.3594 199.217 29.3594C200.12 29.3594 201.023 29.5102 202.001 29.661C202.453 29.7364 202.904 29.8118 203.356 29.9626C203.807 30.038 204.259 30.2642 204.71 30.3396C205.162 30.4904 205.538 30.6412 205.915 30.8674C206.291 31.0181 206.667 31.2443 206.968 31.4705C207.269 31.6213 207.57 31.8475 207.796 32.0737C208.022 32.2245 208.247 32.4507 208.398 32.6015C208.699 32.9031 208.849 33.1293 208.849 33.1293C208.925 33.2047 208.925 33.3555 208.774 33.4309C208.699 33.5063 208.624 33.5063 208.548 33.5063C208.548 33.5063 208.323 33.4309 207.946 33.3555C207.721 33.2801 207.57 33.2047 207.269 33.1293C206.968 33.0539 206.742 32.9785 206.366 32.9031C205.689 32.7523 204.936 32.6015 204.184 32.4507C203.356 32.2999 202.528 32.1491 201.625 31.9229C200.722 31.7721 199.894 31.5459 199.066 31.3951C198.615 31.3197 198.238 31.2443 197.862 31.1689C197.486 31.0935 197.11 31.0182 196.809 30.9428C195.454 30.6412 194.551 30.3396 194.551 30.3396C194.4 30.2642 194.325 30.1888 194.4 30.038C194.325 29.8872 194.4 29.8118 194.476 29.8118Z" fill="#0E263F"/>
<path d="M185.37 30.4898C185.37 30.4898 184.467 30.716 183.188 30.9422C182.51 31.093 181.758 31.1684 180.93 31.3192C180.102 31.47 179.274 31.6208 178.371 31.7716C177.543 31.9224 176.64 32.0732 175.888 32.224C175.512 32.2994 175.135 32.3748 174.759 32.4502C174.383 32.5256 174.082 32.601 173.781 32.6764C173.48 32.7518 173.179 32.8272 172.953 32.9026C172.652 32.978 172.501 33.0534 172.276 33.0534C171.899 33.1288 171.674 33.2042 171.674 33.2042C171.523 33.2042 171.372 33.1288 171.297 32.978C171.297 32.9026 171.297 32.7518 171.372 32.6764C171.372 32.6764 171.523 32.5256 171.824 32.224C171.975 32.0732 172.125 31.847 172.426 31.6962C172.652 31.5454 172.953 31.3192 173.254 31.1684C173.555 31.0176 173.931 30.7914 174.307 30.6406C174.684 30.4898 175.06 30.339 175.512 30.1882C175.963 30.0374 176.339 29.8866 176.791 29.8112C177.242 29.7358 177.694 29.585 178.145 29.5096C179.952 29.208 181.833 29.208 183.263 29.3588C184.617 29.5096 185.521 29.8112 185.521 29.8112C185.671 29.8866 185.746 30.0374 185.746 30.1882C185.596 30.4144 185.521 30.4898 185.37 30.4898Z" fill="#0E263F"/>
<path d="M185.596 51.7523C186.875 51.2999 191.466 51.4507 192.594 52.0539C193.648 52.6571 190.261 53.2603 189.057 53.2603C187.853 53.1849 184.542 52.2047 185.596 51.7523Z" fill="#F29A86"/>
<path opacity="0.5" d="M191.767 64.7969C189.735 64.3445 186.273 64.2691 184.693 64.4953C183.564 64.6461 186.198 63.5906 188.23 63.7414C190.186 63.8168 192.895 65.0985 191.767 64.7969Z" fill="#E5886E"/>
<path d="M182.209 56.4269C186.424 57.8595 191.691 57.8595 195.68 57.5579C196.207 57.5579 195.981 57.6333 195.454 58.1611C194.626 59.0658 192.068 61.931 188.606 61.7802C185.295 61.6294 182.435 57.4825 181.758 56.2761C181.607 55.8991 181.833 56.3515 182.209 56.4269Z" fill="white"/>
<path d="M181.156 55.5977C183.865 56.0501 187.176 54.5422 188.681 56.2009C190.788 54.8437 194.401 57.2565 197.185 57.2565C197.26 57.2565 197.335 57.3319 197.11 57.4073C195.68 57.8597 187.477 59.4431 181.08 55.8993C180.779 55.7485 180.855 55.5977 181.156 55.5977Z" fill="#F29A86"/>
<path d="M181.306 55.9746C181.306 55.9746 183.413 59.5184 184.994 60.9509C186.499 62.3081 190.638 62.7605 192.369 61.6295C193.949 60.5739 196.508 57.4826 196.508 57.4826C196.508 57.4826 195.906 57.6334 195.83 57.6334C194.325 58.5382 193.422 59.443 191.767 60.0461C190.036 60.6493 188.23 60.6493 186.574 60.1215C184.392 59.443 183.94 57.7842 182.435 56.5778L181.682 56.1254L181.306 55.9746Z" fill="#F29A86"/>
<path d="M182.811 56.7285C183.94 57.6333 186.122 58.3873 188.832 58.6135C192.143 58.8397 195.605 57.7841 195.605 57.7841C195.605 57.7841 192.068 58.3119 188.982 58.1611C185.821 58.0103 182.811 56.7285 182.811 56.7285Z" fill="#D3E3F1"/>
<path d="M153.386 131.147C152.182 110.035 157.751 83.7967 174.985 76.6338" stroke="#123258" stroke-width="2" stroke-miterlimit="10" stroke-linecap="round" stroke-linejoin="round"/>
<path d="M166.556 82.5156L158.5 141L173.404 145.398L166.556 152.561L190.186 168.319C190.186 168.319 190.036 157.688 176.866 129.866C167.233 109.508 167.008 99.028 166.556 82.5156Z" fill="#D3E3F1"/>
<path d="M234.587 170.506C221.342 170.054 194.626 162.966 172.727 162.966C171.297 162.966 152.558 168.018 152.483 170.204C155.343 169.978 161.138 170.732 166.481 173.974C173.479 178.121 179.876 184.907 180.779 183.475C192.67 183.852 254.755 207.074 259.873 198.554C265.216 189.582 259.722 170.355 258.142 161.157C255.207 143.966 251.971 126.548 247.38 109.735C244.22 98.1985 234.813 79.8766 223.073 95.3334C217.353 102.798 222.772 122.779 225.782 126.548C228.867 130.318 234.587 170.506 234.587 170.506Z" fill="#FFAF99"/>
<path d="M193.497 187.697L179.801 181.439C179.801 181.439 164.75 169.677 153.462 169.375L152.558 170.204C152.558 170.204 166.18 170.506 173.028 179.252C176.264 183.324 183.413 184.53 185.295 189.129C185.295 189.054 191.24 188.074 193.497 187.697Z" fill="#F29A86"/>
<path d="M209.677 81.46L222 141.5L205.388 145.323L212.311 152.486L190.111 168.244L189.584 164.625C189.584 164.625 199.819 137.33 204.259 120.743C210.054 99.6311 209.677 81.46 209.677 81.46Z" fill="#D3E3F1"/>
<path d="M186.875 163.72C186.875 163.72 179.5 177.292 186.724 192.145C186.724 192.145 252.422 203.455 259.572 200.967C266.721 198.479 260.926 169.45 258.744 158.442C256.637 147.434 249.412 93.5238 234.286 89.3014L228.19 86.8887L220.138 90.734C220.138 90.734 219.582 110 217.5 110C219.582 110 223.5 139 223.5 139L231.501 166.962L186.875 163.72Z" fill="white"/>
<path d="M232.63 157.613C238.124 158.517 241.134 173.069 233.383 174.125C228.642 174.804 225.631 173.069 221.869 169.827C218.633 167.038 210.279 165.454 205.463 165.153C205.463 165.077 223.148 156.029 232.63 157.613Z" fill="#FFAF99"/>
<path d="M230.072 133.032C230.373 134.239 232.63 157.537 232.63 157.537C232.63 157.537 230.222 157.084 227.438 157.537C227.438 157.612 231.577 155.426 230.072 133.032Z" fill="#D3E3F1"/>
<path d="M208.022 152.334C208.022 153.164 207.344 153.842 206.517 153.842C205.689 153.842 205.011 153.164 205.011 152.334C205.011 151.505 205.689 150.826 206.517 150.826C207.344 150.826 208.022 151.505 208.022 152.334Z" fill="#123258"/>
<path d="M225.03 152.334C225.03 153.164 224.352 153.842 223.524 153.842C222.697 153.842 222.019 153.164 222.019 152.334C222.019 151.505 222.697 150.826 223.524 150.826C224.352 150.826 225.03 151.505 225.03 152.334Z" fill="#123258"/>
<path d="M206.592 152.334C206.592 153.013 206.065 153.465 205.463 153.465H204.56C203.958 153.465 203.431 152.938 203.431 152.334C203.431 151.656 203.958 151.203 204.56 151.203H205.463C206.065 151.128 206.592 151.656 206.592 152.334Z" fill="#123258"/>
<path d="M226.384 152.334C226.384 153.013 225.857 153.465 225.255 153.465H224.352C223.75 153.465 223.223 152.938 223.223 152.334C223.223 151.656 223.75 151.203 224.352 151.203H225.255C225.857 151.128 226.384 151.656 226.384 152.334Z" fill="#123258"/>
<path d="M201.776 77.5391C211.784 83.7218 213.666 97.8213 215.472 111.544" stroke="#123258" stroke-width="2" stroke-miterlimit="10" stroke-linecap="round" stroke-linejoin="round"/>
<path d="M206.517 152.335C194.702 124.663 215.472 111.544 215.472 111.544C215.472 111.544 237.672 125.04 223.524 152.335" stroke="#123258" stroke-width="2" stroke-miterlimit="10"/>
<path d="M199.217 205.867C199.217 207.074 200.195 205.867 201.474 205.867C202.679 205.867 203.732 207.074 203.732 205.867C203.732 204.661 202.754 203.605 201.474 203.605C200.195 203.605 199.217 204.586 199.217 205.867Z" fill="#D3E3F1"/>
<path d="M201.098 236.555C201.098 237.761 202.077 236.555 203.356 236.555C204.56 236.555 205.614 237.761 205.614 236.555C205.614 235.349 204.635 234.293 203.356 234.293C202.077 234.368 201.098 235.349 201.098 236.555Z" fill="#D3E3F1"/>
<path d="M167.998 38C168.152 33.399 171.147 23.7445 175.601 20.7275C180.055 17.635 182.973 13.1095 182.973 13.1095C182.973 13.1095 182.819 19.5207 191.036 21.3309C200.02 23.3674 208.544 24.8759 211.462 31.7397L212 28.6472L183.664 7L170.686 21.4063L167 30.0803L167.998 38Z" fill="#F29A86"/>
<path d="M217.143 50C217.053 42.6657 217.504 36.7983 211.643 31.5726C203.346 24.1466 196.042 26.7136 189.369 22.1297C183.146 17.8208 182.515 11.0365 183.237 4.52736C183.597 1.13524 191.172 -0.79001 196.673 0.310134C214.709 3.79393 219.578 22.9548 218.947 37.715C218.496 45.3244 217.143 50 217.143 50Z" fill="#0E263F"/>
<path d="M209.556 45C209.486 39.7193 209.837 35.4947 205.278 31.7323C198.825 26.3856 193.144 28.2338 187.953 24.9334C183.114 21.831 182.623 16.9463 183.184 12.2597C183.465 9.81738 189.356 8.43119 193.635 9.2233C207.662 11.7316 211.45 25.5274 210.959 36.1548C210.608 41.6336 209.556 45 209.556 45Z" fill="#0E263F"/>
<path d="M224.798 72.9125C239.434 61.2929 211.134 19 211.134 19C211.134 19 212.48 32.7446 211.134 41.3788L211.134 41.3802C210.281 46.8527 209.763 50.1767 207.591 55.1112C205.328 60.2556 200 65.792 200 65.792V75.9641C200 76.7779 202.362 77.6595 203.543 77.9985C203.543 77.9985 218.103 78.2283 224.798 72.9125Z" fill="#0E263F"/>
<path d="M154.651 72.5C140.191 61.0771 168.151 19.5 168.151 19.5C168.151 19.5 166.821 33.012 168.151 41.5L168.151 41.5015C168.994 46.8813 169.506 50.149 171.651 55C173.887 60.0574 179.151 65.5 179.151 65.5V75.5C179.151 76.3 176.818 77.1667 175.651 77.5C175.651 77.5 161.266 77.7259 154.651 72.5Z" fill="#0E263F"/>
<path d="M182.886 10.138C181.686 14.0591 178.344 17.3267 174.231 20.2676C165.918 26.231 165.575 41.8338 166.175 46C166.175 46 163.176 37.9944 163.004 28.2732C162.747 14.7943 174.402 -1.87047 184 4.33799C183.743 6.46193 183.4 8.34081 182.886 10.138Z" fill="#0E263F"/>
<path d="M188.189 11.0976C187.158 15.1414 183.524 18.7887 178.944 22.2022C169.691 29.1206 170.837 44.6867 171.962 48.7611C171.962 48.7611 167.613 41.1505 166.442 31.4979C164.797 18.1164 176.945 0.153711 188.932 5.19445C188.839 7.33831 188.62 9.24846 188.189 11.0976Z" fill="#0E263F"/>
<path d="M190.487 295.441C190.487 297.477 188.832 299.06 186.875 299.06C184.843 299.06 183.263 297.401 183.263 295.441C183.263 293.405 184.918 291.822 186.875 291.822C188.907 291.746 190.487 293.405 190.487 295.441Z" stroke="white" stroke-miterlimit="10" stroke-linecap="round" stroke-linejoin="round"/>
<path d="M133.745 64.6459C133.745 65.7015 132.842 66.6063 131.788 66.6063C130.734 66.6063 129.831 65.7015 129.831 64.6459C129.831 63.5903 130.734 62.6855 131.788 62.6855C132.842 62.6855 133.745 63.5149 133.745 64.6459Z" fill="white"/>
<path opacity="0.3" d="M139.389 64.6459C139.389 65.7015 138.486 66.6063 137.432 66.6063C136.379 66.6063 135.476 65.7015 135.476 64.6459C135.476 63.5903 136.379 62.6855 137.432 62.6855C138.486 62.6855 139.389 63.5149 139.389 64.6459Z" fill="white"/>
<path d="M169.933 245.903C169.954 245.596 169.976 245.294 170 245C170 245 169.977 245.325 169.933 245.903C169.287 255.354 169.908 270.817 167.081 272.999C164.271 275.167 153.648 273.161 146.783 273.008C146.283 273.004 146 272.999 146 272.999C146.255 272.999 146.516 273.002 146.783 273.008C150.173 273.034 163.522 272.99 165.784 270.746C168.071 268.476 169.602 250.202 169.933 245.903Z" fill="#D3E3F1"/>
<path d="M210.067 245.903C210.046 245.596 210.024 245.294 210 245C210 245 210.023 245.325 210.067 245.903C210.713 255.354 210.092 270.817 212.919 272.999C215.729 275.167 226.352 273.161 233.217 273.008C233.717 273.004 234 272.999 234 272.999C233.745 272.999 233.484 273.002 233.217 273.008C229.827 273.034 216.478 272.99 214.216 270.746C211.929 268.476 210.398 250.202 210.067 245.903Z" fill="#D3E3F1"/>
</g>
<defs>
<clipPath id="clip0_578_2496">
<rect width="375" height="321" fill="white"/>
</clipPath>
</defs>
</svg>
